<svg xmlns="http://www.w3.org/2000/svg" xmlns:xlink="http://www.w3.org/1999/xlink" width="500" zoomAndPan="magnify" viewBox="0 0 375 374.999991" height="500" preserveAspectRatio="xMidYMid meet" version="1.0"><defs><g/><clipPath id="ea1c2a93c5"><path d="M 26.675781 26.675781 L 348.324219 26.675781 L 348.324219 348.324219 L 26.675781 348.324219 Z M 26.675781 26.675781 " clip-rule="nonzero"/></clipPath><clipPath id="b1c03705d4"><path d="M 187.5 26.675781 C 98.679688 26.675781 26.675781 98.679688 26.675781 187.5 C 26.675781 276.320312 98.679688 348.324219 187.5 348.324219 C 276.320312 348.324219 348.324219 276.320312 348.324219 187.5 C 348.324219 98.679688 276.320312 26.675781 187.5 26.675781 Z M 187.5 26.675781 " clip-rule="nonzero"/></clipPath><clipPath id="6d2ccec9bc"><path d="M 26.675781 26.675781 L 348.320312 26.675781 L 348.320312 348.320312 L 26.675781 348.320312 Z M 26.675781 26.675781 " clip-rule="nonzero"/></clipPath><clipPath id="fee722bd10"><path d="M 187.5 26.675781 C 98.679688 26.675781 26.675781 98.679688 26.675781 187.5 C 26.675781 276.320312 98.679688 348.320312 187.5 348.320312 C 276.320312 348.320312 348.320312 276.320312 348.320312 187.5 C 348.320312 98.679688 276.320312 26.675781 187.5 26.675781 Z M 187.5 26.675781 " clip-rule="nonzero"/></clipPath><clipPath id="38c29ca0b1"><path d="M 42.148438 175.710938 L 65.398438 175.710938 L 65.398438 198.960938 L 42.148438 198.960938 Z M 42.148438 175.710938 " clip-rule="nonzero"/></clipPath><clipPath id="ae8c1239c1"><path d="M 309.273438 175.710938 L 332.523438 175.710938 L 332.523438 198.960938 L 309.273438 198.960938 Z M 309.273438 175.710938 " clip-rule="nonzero"/></clipPath><clipPath id="6d37dfe10f"><path d="M 108 105.644531 L 267.476562 105.644531 L 267.476562 269 L 108 269 Z M 108 105.644531 " clip-rule="nonzero"/></clipPath></defs><rect x="-37.5" width="450" fill="#ffffff" y="-37.499999" height="449.999989" fill-opacity="1"/><rect x="-37.5" width="450" fill="#fefefe" y="-37.499999" height="449.999989" fill-opacity="1"/><g clip-path="url(#ea1c2a93c5)"><g clip-path="url(#b1c03705d4)"><path fill="#f6f6f6" d="M 26.675781 26.675781 L 348.324219 26.675781 L 348.324219 348.324219 L 26.675781 348.324219 Z M 26.675781 26.675781 " fill-opacity="1" fill-rule="nonzero"/></g></g><g clip-path="url(#6d2ccec9bc)"><g clip-path="url(#fee722bd10)"><path stroke-linecap="butt" transform="matrix(0.75, 0, 0, 0.75, 26.676573, 26.676568)" fill="none" stroke-linejoin="miter" d="M 214.431251 -0.00104901 C 96.00416 -0.00104901 -0.00105501 96.004166 -0.00105501 214.431257 C -0.00105501 332.858348 96.00416 428.858354 214.431251 428.858354 C 332.858342 428.858354 428.858348 332.858348 428.858348 214.431257 C 428.858348 96.004166 332.858342 -0.00104901 214.431251 -0.00104901 Z M 214.431251 -0.00104901 " stroke="#000000" stroke-width="4" stroke-opacity="1" stroke-miterlimit="4"/></g></g><g clip-path="url(#38c29ca0b1)"><path fill="#000000" d="M 53.933594 175.710938 C 52.785156 185.414062 51.851562 186.347656 42.148438 187.496094 C 42.167969 187.496094 42.1875 187.5 42.210938 187.5 C 51.855469 188.648438 52.785156 189.59375 53.933594 199.277344 C 55.082031 189.574219 56.011719 188.644531 65.714844 187.496094 C 56.011719 186.347656 55.082031 185.414062 53.933594 175.710938 Z M 53.933594 175.710938 " fill-opacity="1" fill-rule="nonzero"/></g><g clip-path="url(#ae8c1239c1)"><path fill="#000000" d="M 321.054688 175.710938 C 319.90625 185.414062 318.976562 186.347656 309.273438 187.496094 C 309.292969 187.496094 309.3125 187.5 309.332031 187.5 C 318.980469 188.648438 319.910156 189.59375 321.054688 199.277344 C 322.203125 189.574219 323.136719 188.644531 332.839844 187.496094 C 323.136719 186.347656 322.203125 185.414062 321.054688 175.710938 Z M 321.054688 175.710938 " fill-opacity="1" fill-rule="nonzero"/></g><g clip-path="url(#6d37dfe10f)"><path fill="#000000" d="M 151.851562 239.84375 C 142.847656 239.421875 136.335938 237.074219 131.878906 233.917969 C 126.480469 230.097656 126.699219 215.992188 123.308594 210.003906 C 119.765625 203.761719 113.535156 201.441406 110.875 196.382812 C 109.351562 193.476562 110.394531 189.144531 112.449219 186.792969 C 112.964844 186.207031 114.699219 184.5625 115.640625 184.039062 C 116.273438 183.683594 117.132812 184 117.132812 184.617188 C 117.164062 186.746094 117.398438 189.5 117.582031 191.210938 C 117.710938 191.867188 118.046875 192.664062 118.457031 193.425781 C 124.730469 205.199219 132.175781 219.101562 139.152344 230.25 C 140.269531 232.023438 141.546875 233.566406 143.074219 233.789062 C 143.707031 233.886719 145.054688 233.804688 146.542969 233.460938 C 162.980469 229.65625 214.902344 218.226562 243.828125 211.167969 C 244.769531 210.910156 245.265625 209.90625 245.363281 208.621094 C 245.609375 205.335938 245.660156 197.175781 245.554688 194.238281 C 245.5 192.726562 245.167969 191.453125 244.65625 190.695312 C 244.078125 189.84375 237.644531 185.164062 236.023438 183.734375 C 235.027344 182.867188 234.960938 182.722656 234.9375 181.871094 L 235.019531 124.914062 C 234.65625 119.382812 232.65625 118.578125 228.039062 116.652344 L 206.113281 108.171875 C 200.652344 106.234375 199.386719 105.679688 193.378906 105.945312 C 181.445312 106.476562 129.300781 111.960938 125.566406 113.800781 C 123.917969 114.613281 122.972656 116.5625 122.9375 118.8125 C 122.699219 133.386719 122.914062 146.496094 122.964844 160.402344 C 122.972656 161.40625 123.027344 162.257812 123.117188 163.023438 C 123.363281 165.125 123.542969 166.578125 123.871094 169.035156 C 123.976562 169.824219 123.886719 170.515625 123.398438 170.667969 C 120.8125 171.488281 119.847656 171.816406 118.289062 172.507812 C 117.277344 172.957031 116.820312 173.542969 116.914062 174.84375 C 116.875 176.929688 116.914062 178.84375 116.914062 179.542969 C 116.921875 180.457031 116.84375 180.699219 116.207031 181.140625 C 114.675781 182.199219 112.867188 183.484375 111.164062 185.308594 C 108.339844 188.335938 107.6875 193.355469 109.175781 197.144531 C 111.574219 203.296875 119.984375 204.832031 122.929688 213.785156 C 125.363281 221.148438 125.042969 231.527344 131.265625 235.855469 C 137.890625 240.449219 142.945312 241.074219 151.84375 242.078125 C 152.492188 242.160156 152.097656 243.460938 152.332031 245.21875 C 152.53125 246.808594 164.394531 263.785156 167.230469 267.449219 C 168.175781 268.660156 169.269531 269.222656 171.71875 268.539062 C 205.03125 259.304688 229.628906 252.132812 266.316406 240.898438 C 266.878906 240.722656 267.238281 240.289062 267.238281 239.789062 C 267.023438 237.789062 267.046875 235.984375 266.878906 234.648438 C 266.796875 233.949219 266.660156 233.371094 266.410156 232.980469 C 261.96875 227.171875 257.625 221.589844 253.078125 215.90625 C 250.945312 213.746094 250.902344 213.609375 247.652344 213.867188 C 226.265625 218.644531 183.148438 227.945312 152.972656 235.234375 C 152.605469 235.332031 152.292969 235.582031 152.292969 236.199219 C 152.277344 237.140625 152.257812 237.863281 152.179688 239.324219 C 152.15625 239.804688 152.277344 239.871094 151.851562 239.84375 " fill-opacity="1" fill-rule="evenodd"/></g><path fill="#131313" d="M 164.226562 257.714844 C 163.886719 257.199219 164.242188 257.28125 163.445312 257.335938 C 163.535156 257.980469 163.285156 257.648438 163.800781 258.117188 L 164.226562 257.714844 " fill-opacity="1" fill-rule="evenodd"/><path fill="#000000" d="M 140.4375 227.070312 C 140.71875 226.601562 141.089844 227.070312 140.421875 226.304688 C 139.867188 227.011719 140.269531 226.769531 140.4375 227.070312 " fill-opacity="1" fill-rule="evenodd"/><path fill="#fefefe" d="M 226.972656 119.800781 C 216.707031 119.664062 157.542969 126.015625 147.328125 128.238281 C 144.582031 128.84375 143.523438 128.113281 141.730469 126.609375 C 138.398438 123.824219 132.6875 119.527344 128.625 116.675781 C 128.023438 116.25 127.8125 115.511719 128.527344 115.292969 C 163.550781 110.75 174.039062 109.90625 196.445312 108.074219 C 197.160156 108.019531 198.074219 108.035156 199.03125 108.355469 C 208.644531 111.601562 218.203125 115.527344 226.929688 118.851562 C 228.394531 119.40625 229.421875 119.824219 226.972656 119.800781 " fill-opacity="1" fill-rule="evenodd"/><path fill="#fefefe" d="M 140.109375 127.992188 C 142.785156 130.417969 143.5625 130.488281 143.199219 133.855469 C 143.128906 152.203125 142.765625 171.429688 142.824219 194.359375 C 142.832031 197.21875 143.015625 198.597656 141.136719 195.441406 C 136.078125 186.945312 129.699219 175.734375 126.3125 169.171875 C 125.765625 168.113281 125.171875 163.132812 125.074219 161.839844 C 124.632812 159.90625 125.226562 119.800781 125.226562 119.71875 C 125.203125 117.558594 125.507812 116.707031 127.195312 118.28125 C 130.09375 120.972656 137.082031 125.238281 140.109375 127.992188 " fill-opacity="1" fill-rule="evenodd"/><path fill="#fefefe" d="M 229.210938 121.992188 C 230.890625 121.816406 232.289062 122.335938 232.730469 124.273438 C 232.96875 141.515625 233.066406 164.996094 232.417969 182.722656 C 232.351562 184.519531 231.613281 186.101562 229.589844 186.839844 C 203.496094 191.699219 175.453125 197.890625 149.433594 201.761719 C 144.308594 202.527344 145.242188 199.707031 145.328125 195.578125 C 145.503906 178.070312 145.386719 160.917969 145.351562 143.851562 C 145.335938 139.570312 145.273438 136.671875 145.503906 134.6875 C 145.957031 130.9375 147.496094 130.449219 152.605469 130.039062 C 180.296875 126.167969 201.488281 123.800781 229.210938 121.992188 " fill-opacity="1" fill-rule="evenodd"/><path fill="#3668cc" d="M 144.058594 203.496094 C 144.726562 203.957031 145.753906 204.148438 146.976562 204.164062 C 150.269531 204.210938 227.910156 189.203125 230.921875 188.609375 C 231.484375 188.496094 232 188.214844 232.464844 187.894531 C 233.210938 187.378906 233.703125 186.9375 234.40625 186.457031 C 235.089844 185.992188 235.363281 186.269531 236.039062 186.703125 C 237.324219 187.523438 239.113281 188.898438 240.09375 190.046875 C 240.96875 191.058594 240.921875 191.257812 239.84375 191.476562 C 236.976562 192.054688 234.433594 192.527344 231.8125 193.050781 C 204.582031 198.488281 177.765625 203.648438 149.207031 209.289062 C 146.074219 209.785156 142.992188 211.570312 140.984375 208.277344 C 135.160156 198.734375 124.410156 183.964844 120.25 175.292969 C 119.742188 174.25 121.269531 173.808594 122.648438 173.390625 C 125.132812 172.652344 125.605469 172.425781 126.273438 173.800781 C 129.917969 181.300781 136.808594 191.730469 142.230469 201.652344 C 142.648438 202.414062 143.320312 203 144.058594 203.496094 " fill-opacity="1" fill-rule="evenodd"/><path fill="#3668cc" d="M 140.488281 211.320312 C 140.871094 212.121094 141.105469 212.878906 141.136719 213.625 C 141.371094 218.605469 141.425781 222.917969 141.273438 225.886719 C 141.144531 228.523438 140.710938 228.578125 139.5625 226.730469 C 135.363281 219.992188 122.609375 196.09375 119.832031 191.265625 C 119.796875 191.21875 119.132812 182.800781 119.21875 179.179688 C 119.238281 178.367188 119.78125 178.128906 120.242188 178.929688 C 123.476562 186.070312 139.570312 209.433594 140.488281 211.320312 " fill-opacity="1" fill-rule="evenodd"/><path fill="#3668cc" d="M 241.347656 193.363281 C 243.789062 193.203125 243.296875 196.164062 243.304688 197.195312 C 243.332031 200.511719 243.097656 204.050781 243.1875 207.671875 C 243.160156 209.230469 242.9375 209.722656 241.28125 210.164062 C 209.769531 218.042969 177.574219 224.183594 145.851562 231.46875 C 143.730469 231.960938 143.480469 231.566406 143.175781 229.230469 C 143.097656 224.25 143.464844 219.359375 143.441406 214.46875 C 143.433594 213.304688 143.464844 212.636719 144.789062 212.378906 C 182.449219 205.085938 213.832031 198.589844 241.347656 193.363281 " fill-opacity="1" fill-rule="evenodd"/><path fill="#3668cc" d="M 154.429688 245.324219 C 154.265625 244.335938 154.234375 242.132812 154.363281 240.859375 C 154.476562 239.742188 154.46875 239.933594 155.046875 240.753906 C 157.0625 243.628906 164.21875 254.566406 168.136719 261.03125 C 168.328125 261.425781 168.363281 261.972656 168.371094 262.378906 C 168.386719 263.085938 168.320312 263.753906 168.25 264.453125 C 168.183594 265.046875 168.082031 265.296875 167.632812 264.667969 C 165.414062 261.5625 156.804688 249.410156 154.886719 246.359375 C 154.644531 245.964844 154.5 245.78125 154.429688 245.324219 Z M 261.441406 234.464844 C 231.652344 243.476562 203.160156 251.578125 174.511719 259.449219 C 168.972656 260.933594 170.730469 261.632812 164.53125 252.003906 C 161.855469 247.601562 158.300781 242.824219 156.042969 238.480469 C 155.542969 237.515625 155.601562 236.519531 158.316406 236.09375 C 185.691406 229.582031 218.910156 222.128906 248.109375 215.730469 C 249.242188 215.488281 250.042969 215.601562 251.402344 216.933594 C 253.136719 218.636719 260.164062 227.484375 262.765625 231.71875 C 264.257812 234.152344 263.96875 233.703125 261.441406 234.464844 Z M 264.972656 236.289062 C 265.183594 237.089844 265.015625 238.015625 265.101562 238.59375 C 265.117188 238.746094 265.0625 239.003906 264.691406 239.097656 C 235.566406 247.613281 204.917969 257.554688 171.1875 266.339844 C 170.761719 266.453125 170.539062 266.332031 170.546875 265.570312 C 170.546875 264.878906 170.601562 264.058594 170.609375 263.253906 C 170.617188 262.902344 170.617188 262.675781 171.066406 262.550781 C 207.023438 252.519531 237.691406 243.121094 264.136719 235.878906 C 264.582031 235.757812 264.835938 235.773438 264.972656 236.289062 " fill-opacity="1" fill-rule="evenodd"/><path fill="#000000" d="M 246.742188 218.453125 C 237.878906 220.394531 179.164062 233.773438 164.050781 237.394531 C 162.226562 237.828125 162.121094 239.492188 162.554688 240.398438 C 164.066406 242.96875 169.367188 250.800781 171.140625 253.34375 C 172.761719 255.691406 173.269531 255.691406 176.753906 254.679688 C 203.039062 247.007812 227.726562 240.488281 256.066406 232.585938 C 257.578125 232.160156 258.035156 231.421875 257.101562 229.6875 C 255.730469 227.140625 251.457031 222.1875 249.363281 219.816406 C 248.382812 218.699219 248.375 218.425781 246.742188 218.453125 " fill-opacity="1" fill-rule="evenodd"/><path fill="#000000" d="M 158.492188 135.917969 C 154.164062 137.074219 153.152344 138.738281 153.152344 142.726562 C 153.152344 157.832031 152.871094 173.976562 153.261719 186.09375 C 153.457031 191.933594 157.457031 192.847656 163.285156 192.367188 C 182.984375 190.746094 211.253906 186.511719 221.839844 182.039062 C 223.566406 181.308594 225.011719 180.34375 225.390625 178.191406 C 228.054688 162.886719 226.34375 142.761719 225.574219 134.449219 C 225.230469 131.285156 223.070312 129.460938 220.578125 129.460938 C 208.886719 129.539062 169.847656 133.066406 158.492188 135.917969 " fill-opacity="1" fill-rule="evenodd"/><path fill="#008eff" d="M 224.070312 136.511719 C 224.601562 145.464844 225.902344 166.050781 223.09375 177.421875 C 222.914062 178.144531 222.242188 178.851562 221.164062 179.542969 C 211.550781 185.683594 169.910156 190.175781 162.828125 190.625 C 156.949219 190.992188 155.070312 189.871094 155.070312 184.960938 C 154.265625 170.25 154.699219 151.875 155 142.6875 C 155 139.765625 156.917969 137.925781 159.398438 137.546875 C 175.285156 135.113281 212.796875 131.058594 220.417969 131.324219 C 222.949219 131.414062 223.925781 134.414062 224.070312 136.511719 " fill-opacity="1" fill-rule="evenodd"/><path fill="#000000" d="M 191.21875 212.734375 C 191.363281 212.1875 191.195312 209.585938 191.058594 209.101562 C 190.75 207.953125 189.324219 208.332031 188.488281 208.5 C 176.328125 210.695312 163.761719 212.957031 150.371094 215.839844 C 149.207031 216.097656 148.316406 216.652344 148.234375 218.164062 C 148.15625 219.6875 148.246094 220.332031 148.226562 221.359375 C 148.210938 222.457031 149.175781 222.507812 151.152344 222.144531 C 163.664062 219.855469 176.867188 217.648438 189.167969 214.574219 C 190.285156 214.292969 191.082031 213.859375 191.21875 212.734375 " fill-opacity="1" fill-rule="evenodd"/><path fill="#000000" d="M 200.71875 207.578125 C 210.292969 205.511719 219.632812 203.753906 230.808594 201.5625 C 231.507812 201.425781 231.097656 199.722656 230.441406 199.859375 C 222.753906 201.265625 215.472656 202.863281 200.460938 205.828125 C 199.425781 206.019531 199.554688 207.785156 200.71875 207.578125 " fill-opacity="1" fill-rule="evenodd"/><path fill="#000000" d="M 237.300781 202.542969 C 236.433594 202.710938 235.683594 203.714844 235.957031 204.695312 C 236.191406 205.546875 236.800781 206.269531 238.0625 206.035156 C 239.136719 205.835938 239.652344 204.925781 239.5625 204.101562 C 239.46875 203.136719 238.648438 202.285156 237.300781 202.542969 " fill-opacity="1" fill-rule="evenodd"/><path fill="#000000" d="M 235.726562 200.332031 C 236.9375 199.996094 238.328125 199.84375 239.699219 199.402344 C 240.222656 199.234375 240.0625 198.027344 239.433594 198.164062 C 238.738281 198.308594 235.917969 198.871094 235.15625 199.074219 C 234.519531 199.242188 234.3125 200.726562 235.726562 200.332031 " fill-opacity="1" fill-rule="evenodd"/><path fill="#fefefe" d="M 193.394531 235.132812 C 191.738281 235.558594 190.777344 235.902344 189.394531 236.160156 C 189.113281 236.207031 188.664062 236.296875 188.34375 235.941406 C 187.773438 235.316406 187.441406 235.097656 187.234375 234.394531 C 187.128906 234.070312 187.203125 233.824219 187.433594 233.710938 C 188.390625 233.226562 189.851562 232.996094 191.066406 232.828125 C 191.699219 232.746094 192.316406 232.675781 192.625 232.996094 C 192.9375 233.324219 193.644531 234.09375 193.675781 234.640625 C 193.691406 234.851562 193.636719 235.066406 193.394531 235.132812 Z M 171.773438 240.132812 C 169.855469 240.738281 168.722656 241.203125 167.117188 241.589844 C 166.789062 241.660156 166.265625 241.789062 165.886719 241.402344 C 165.230469 240.714844 164.84375 240.480469 164.59375 239.667969 C 164.484375 239.292969 164.5625 239.011719 164.835938 238.859375 C 165.945312 238.238281 167.648438 237.871094 169.058594 237.605469 C 169.800781 237.460938 170.515625 237.339844 170.882812 237.703125 C 171.246094 238.0625 172.0625 238.914062 172.105469 239.554688 C 172.121094 239.789062 172.046875 240.046875 171.773438 240.132812 Z M 180.023438 238.273438 C 178.214844 238.777344 177.148438 239.179688 175.644531 239.492188 C 175.332031 239.554688 174.84375 239.660156 174.503906 239.285156 C 173.910156 238.625 173.558594 238.398438 173.347656 237.636719 C 173.253906 237.292969 173.332031 237.019531 173.597656 236.882812 C 174.648438 236.34375 176.238281 236.046875 177.566406 235.839844 C 178.253906 235.726562 178.929688 235.628906 179.257812 235.976562 C 179.589844 236.320312 180.328125 237.148438 180.351562 237.742188 C 180.359375 237.957031 180.289062 238.199219 180.023438 238.273438 Z M 174.207031 244.148438 C 172.402344 244.710938 171.339844 245.144531 169.839844 245.507812 C 169.527344 245.578125 169.035156 245.699219 168.683594 245.339844 C 168.074219 244.6875 167.703125 244.472656 167.46875 243.714844 C 167.367188 243.363281 167.4375 243.089844 167.703125 242.945312 C 168.738281 242.367188 170.335938 242.03125 171.664062 241.773438 C 172.351562 241.644531 173.027344 241.53125 173.371094 241.863281 C 173.710938 242.199219 174.480469 243.011719 174.519531 243.605469 C 174.539062 243.828125 174.464844 244.070312 174.207031 244.148438 Z M 186.183594 236.699219 C 184.824219 237.050781 184.023438 237.355469 182.898438 237.546875 C 182.664062 237.589844 182.296875 237.652344 182.039062 237.285156 C 181.597656 236.625 181.324219 236.390625 181.171875 235.660156 C 181.097656 235.332031 181.164062 235.089844 181.355469 234.980469 C 182.144531 234.546875 183.597656 234.144531 184.59375 234.039062 C 185.113281 233.984375 185.363281 234.167969 185.613281 234.503906 C 185.859375 234.851562 186.414062 235.667969 186.429688 236.222656 C 186.4375 236.433594 186.382812 236.648438 186.183594 236.699219 Z M 201.03125 233.019531 C 199.378906 233.445312 198.40625 233.789062 197.03125 234.046875 C 196.75 234.09375 196.300781 234.183594 195.980469 233.832031 C 195.410156 233.203125 195.082031 232.988281 194.863281 232.28125 C 194.765625 231.960938 194.839844 231.710938 195.074219 231.589844 C 196.027344 231.117188 197.488281 230.882812 198.703125 230.714844 C 199.335938 230.632812 199.949219 230.554688 200.261719 230.882812 C 200.574219 231.203125 201.28125 231.984375 201.3125 232.53125 C 201.328125 232.738281 201.265625 232.957031 201.03125 233.019531 Z M 208.683594 231.226562 C 207.039062 231.652344 206.066406 232 204.695312 232.257812 C 204.40625 232.3125 203.953125 232.394531 203.632812 232.039062 C 203.070312 231.421875 202.734375 231.195312 202.523438 230.496094 C 202.429688 230.167969 202.492188 229.925781 202.734375 229.808594 C 203.683594 229.332031 205.144531 229.09375 206.363281 228.929688 C 206.992188 228.84375 207.609375 228.769531 207.921875 229.101562 C 208.234375 229.421875 208.933594 230.199219 208.972656 230.746094 C 208.980469 230.949219 208.925781 231.164062 208.683594 231.226562 Z M 216.179688 229.597656 C 214.53125 230.023438 213.558594 230.371094 212.179688 230.625 C 211.898438 230.675781 211.449219 230.761719 211.125 230.410156 C 210.5625 229.789062 210.226562 229.566406 210.019531 228.867188 C 209.921875 228.539062 209.984375 228.296875 210.226562 228.175781 C 211.175781 227.695312 212.636719 227.460938 213.847656 227.300781 C 214.484375 227.214844 215.101562 227.140625 215.414062 227.46875 C 215.726562 227.792969 216.425781 228.5625 216.46875 229.117188 C 216.476562 229.316406 216.417969 229.535156 216.179688 229.597656 Z M 223.238281 227.757812 C 221.664062 228.160156 220.738281 228.488281 219.429688 228.738281 C 219.15625 228.785156 218.730469 228.867188 218.417969 228.53125 C 217.878906 227.945312 217.566406 227.726562 217.367188 227.058594 C 217.269531 226.746094 217.335938 226.515625 217.558594 226.402344 C 218.464844 225.945312 219.863281 225.726562 221.019531 225.566406 C 221.621094 225.488281 222.210938 225.414062 222.507812 225.726562 C 222.804688 226.03125 223.476562 226.769531 223.511719 227.292969 C 223.527344 227.492188 223.460938 227.695312 223.238281 227.757812 Z M 229.734375 226.105469 C 228.3125 226.464844 227.476562 226.769531 226.289062 226.988281 C 226.039062 227.035156 225.65625 227.109375 225.382812 226.804688 C 224.890625 226.265625 224.601562 226.074219 224.425781 225.46875 C 224.335938 225.1875 224.394531 224.980469 224.601562 224.875 C 225.421875 224.464844 226.683594 224.257812 227.726562 224.121094 C 228.273438 224.046875 228.800781 223.984375 229.074219 224.265625 C 229.347656 224.546875 229.949219 225.214844 229.984375 225.6875 C 230 225.863281 229.941406 226.046875 229.734375 226.105469 Z M 236.558594 224.464844 C 235.128906 224.835938 234.296875 225.132812 233.105469 225.359375 C 232.867188 225.398438 232.472656 225.476562 232.199219 225.171875 C 231.710938 224.636719 231.429688 224.441406 231.242188 223.839844 C 231.15625 223.558594 231.21875 223.34375 231.421875 223.246094 C 232.238281 222.828125 233.5 222.628906 234.550781 222.484375 C 235.097656 222.410156 235.628906 222.355469 235.894531 222.636719 C 236.167969 222.910156 236.769531 223.582031 236.800781 224.058594 C 236.816406 224.226562 236.761719 224.417969 236.558594 224.464844 Z M 242.214844 222.828125 C 240.96875 223.148438 240.230469 223.414062 239.195312 223.605469 C 238.976562 223.648438 238.640625 223.710938 238.390625 223.445312 C 237.964844 222.972656 237.714844 222.804688 237.554688 222.273438 C 237.476562 222.023438 237.53125 221.847656 237.707031 221.753906 C 238.429688 221.390625 239.539062 221.214844 240.457031 221.09375 C 240.9375 221.027344 241.402344 220.972656 241.636719 221.214844 C 241.875 221.460938 242.40625 222.050781 242.429688 222.464844 C 242.445312 222.621094 242.398438 222.789062 242.214844 222.828125 Z M 247.625 221.253906 C 246.574219 221.527344 245.957031 221.742188 245.082031 221.914062 C 244.894531 221.945312 244.605469 222 244.40625 221.777344 C 244.046875 221.375 243.828125 221.238281 243.691406 220.789062 C 243.636719 220.578125 243.675781 220.417969 243.828125 220.347656 C 244.4375 220.042969 245.371094 219.890625 246.140625 219.785156 C 246.550781 219.726562 246.945312 219.6875 247.136719 219.890625 C 247.335938 220.097656 247.789062 220.59375 247.8125 220.949219 C 247.820312 221.078125 247.78125 221.214844 247.625 221.253906 Z M 195.609375 239.082031 C 193.964844 239.515625 192.992188 239.878906 191.621094 240.144531 C 191.332031 240.199219 190.878906 240.289062 190.558594 239.941406 C 189.996094 239.324219 189.667969 239.105469 189.449219 238.398438 C 189.355469 238.078125 189.425781 237.828125 189.660156 237.710938 C 190.617188 237.226562 192.070312 236.980469 193.289062 236.800781 C 193.917969 236.714844 194.535156 236.632812 194.847656 236.953125 C 195.160156 237.277344 195.859375 238.046875 195.898438 238.59375 C 195.914062 238.792969 195.851562 239.019531 195.609375 239.082031 Z M 182.238281 242.34375 C 180.441406 242.867188 179.371094 243.28125 177.863281 243.605469 C 177.558594 243.675781 177.066406 243.78125 176.730469 243.410156 C 176.136719 242.761719 175.773438 242.527344 175.574219 241.773438 C 175.476562 241.429688 175.558594 241.15625 175.8125 241.019531 C 176.867188 240.464844 178.464844 240.160156 179.789062 239.933594 C 180.480469 239.8125 181.15625 239.71875 181.484375 240.0625 C 181.804688 240.398438 182.550781 241.21875 182.570312 241.8125 C 182.578125 242.03125 182.503906 242.269531 182.238281 242.34375 Z M 188.40625 240.714844 C 187.050781 241.082031 186.246094 241.394531 185.113281 241.597656 C 184.882812 241.636719 184.511719 241.707031 184.261719 241.339844 C 183.8125 240.6875 183.546875 240.449219 183.386719 239.734375 C 183.316406 239.394531 183.378906 239.148438 183.582031 239.042969 C 184.367188 238.59375 185.8125 238.183594 186.816406 238.070312 C 187.332031 238.007812 187.585938 238.191406 187.835938 238.527344 C 188.078125 238.875 188.632812 239.683594 188.648438 240.238281 C 188.65625 240.449219 188.601562 240.664062 188.40625 240.714844 Z M 203.25 236.898438 C 201.601562 237.332031 200.628906 237.695312 199.257812 237.957031 C 198.96875 238.015625 198.519531 238.101562 198.195312 237.757812 C 197.632812 237.140625 197.296875 236.921875 197.089844 236.214844 C 196.992188 235.894531 197.0625 235.644531 197.296875 235.523438 C 198.253906 235.042969 199.707031 234.792969 200.925781 234.617188 C 201.554688 234.527344 202.171875 234.449219 202.484375 234.769531 C 202.796875 235.089844 203.496094 235.863281 203.539062 236.410156 C 203.554688 236.617188 203.488281 236.835938 203.25 236.898438 Z M 210.910156 235.035156 C 209.253906 235.476562 208.285156 235.839844 206.910156 236.101562 C 206.628906 236.160156 206.179688 236.246094 205.859375 235.894531 C 205.296875 235.285156 204.957031 235.066406 204.75 234.359375 C 204.644531 234.039062 204.71875 233.789062 204.949219 233.667969 C 205.90625 233.1875 207.367188 232.9375 208.582031 232.761719 C 209.214844 232.664062 209.832031 232.59375 210.136719 232.914062 C 210.453125 233.234375 211.160156 234.007812 211.191406 234.554688 C 211.207031 234.753906 211.140625 234.972656 210.910156 235.035156 Z M 218.402344 233.332031 C 216.746094 233.773438 215.777344 234.136719 214.402344 234.402344 C 214.121094 234.457031 213.671875 234.546875 213.351562 234.199219 C 212.78125 233.582031 212.453125 233.363281 212.242188 232.65625 C 212.136719 232.335938 212.210938 232.085938 212.445312 231.96875 C 213.398438 231.484375 214.859375 231.238281 216.074219 231.058594 C 216.707031 230.972656 217.316406 230.890625 217.632812 231.210938 C 217.945312 231.535156 218.652344 232.304688 218.683594 232.851562 C 218.699219 233.050781 218.636719 233.277344 218.402344 233.332031 Z M 225.460938 231.429688 C 223.886719 231.855469 222.957031 232.191406 221.648438 232.449219 C 221.375 232.496094 220.949219 232.585938 220.644531 232.25 C 220.105469 231.664062 219.792969 231.453125 219.582031 230.785156 C 219.496094 230.480469 219.558594 230.242188 219.785156 230.128906 C 220.691406 229.664062 222.082031 229.429688 223.238281 229.261719 C 223.847656 229.171875 224.433594 229.101562 224.730469 229.40625 C 225.027344 229.71875 225.695312 230.449219 225.734375 230.972656 C 225.742188 231.164062 225.6875 231.371094 225.460938 231.429688 Z M 231.957031 229.71875 C 230.539062 230.097656 229.695312 230.402344 228.511719 230.632812 C 228.265625 230.683594 227.878906 230.761719 227.597656 230.457031 C 227.117188 229.925781 226.828125 229.742188 226.640625 229.132812 C 226.554688 228.851562 226.617188 228.640625 226.820312 228.539062 C 227.644531 228.121094 228.898438 227.902344 229.949219 227.75 C 230.496094 227.671875 231.027344 227.605469 231.300781 227.886719 C 231.566406 228.160156 232.175781 228.828125 232.199219 229.292969 C 232.214844 229.46875 232.167969 229.664062 231.957031 229.71875 Z M 238.777344 228.023438 C 237.355469 228.402344 236.519531 228.707031 235.332031 228.941406 C 235.082031 228.988281 234.695312 229.066406 234.425781 228.761719 C 233.933594 228.234375 233.644531 228.039062 233.460938 227.4375 C 233.378906 227.15625 233.4375 226.949219 233.636719 226.84375 C 234.464844 226.417969 235.726562 226.210938 236.769531 226.054688 C 237.316406 225.976562 237.84375 225.910156 238.117188 226.183594 C 238.382812 226.464844 238.992188 227.132812 239.027344 227.597656 C 239.035156 227.773438 238.984375 227.96875 238.777344 228.023438 Z M 244.679688 226.183594 C 243.425781 226.523438 242.695312 226.789062 241.652344 226.988281 C 241.433594 227.035156 241.097656 227.101562 240.855469 226.835938 C 240.429688 226.371094 240.175781 226.210938 240.011719 225.671875 C 239.941406 225.429688 239.996094 225.246094 240.175781 225.148438 C 240.898438 224.78125 241.996094 224.59375 242.921875 224.457031 C 243.394531 224.394531 243.859375 224.339844 244.101562 224.578125 C 244.335938 224.820312 244.863281 225.40625 244.894531 225.816406 C 244.90625 225.96875 244.855469 226.136719 244.679688 226.183594 Z M 250.367188 224.609375 C 249.175781 224.925781 248.476562 225.1875 247.480469 225.375 C 247.273438 225.414062 246.953125 225.488281 246.71875 225.230469 C 246.316406 224.789062 246.070312 224.628906 245.925781 224.121094 C 245.851562 223.886719 245.898438 223.710938 246.070312 223.625 C 246.757812 223.269531 247.8125 223.09375 248.6875 222.964844 C 249.144531 222.902344 249.585938 222.84375 249.820312 223.078125 C 250.042969 223.308594 250.550781 223.863281 250.574219 224.257812 C 250.582031 224.402344 250.542969 224.5625 250.367188 224.609375 Z M 179.734375 247.410156 C 177.933594 247.972656 174.367188 249.089844 172.867188 249.449219 C 172.554688 249.523438 172.0625 249.644531 171.710938 249.273438 C 171.09375 248.632812 170.730469 248.40625 170.496094 247.652344 C 170.394531 247.296875 170.464844 247.023438 170.722656 246.878906 C 171.765625 246.308594 175.863281 245.289062 177.1875 245.042969 C 177.878906 244.90625 178.554688 244.792969 178.890625 245.128906 C 179.234375 245.46875 180.007812 246.269531 180.046875 246.871094 C 180.0625 247.089844 179.992188 247.332031 179.734375 247.410156 Z M 186.839844 245.25 C 185.589844 245.578125 183.699219 246.238281 182.664062 246.421875 C 182.449219 246.457031 182.109375 246.519531 181.878906 246.183594 C 181.46875 245.585938 181.226562 245.371094 181.082031 244.703125 C 181.011719 244.398438 181.074219 244.175781 181.25 244.078125 C 181.972656 243.667969 184.457031 242.929688 185.378906 242.824219 C 185.851562 242.761719 186.085938 242.9375 186.3125 243.242188 C 186.535156 243.554688 187.050781 244.304688 187.058594 244.816406 C 187.066406 245 187.015625 245.203125 186.839844 245.25 Z M 194.246094 243.417969 C 193.03125 243.691406 191.210938 244.253906 190.207031 244.390625 C 189.996094 244.421875 189.667969 244.472656 189.441406 244.132812 C 189.050781 243.539062 188.808594 243.324219 188.671875 242.679688 C 188.609375 242.375 188.664062 242.167969 188.839844 242.070312 C 189.539062 241.707031 191.941406 241.082031 192.824219 241.019531 C 193.289062 240.976562 193.515625 241.15625 193.730469 241.460938 C 193.949219 241.773438 194.445312 242.511719 194.453125 243.011719 C 194.460938 243.195312 194.414062 243.378906 194.246094 243.417969 Z M 201.046875 241.574219 C 199.882812 241.835938 198.109375 242.375 197.144531 242.511719 C 196.945312 242.542969 196.621094 242.585938 196.40625 242.261719 C 196.019531 241.683594 195.796875 241.476562 195.660156 240.847656 C 195.59375 240.558594 195.652344 240.359375 195.820312 240.269531 C 196.492188 239.910156 198.824219 239.316406 199.683594 239.242188 C 200.125 239.210938 200.339844 239.378906 200.558594 239.675781 C 200.765625 239.972656 201.242188 240.695312 201.257812 241.171875 C 201.265625 241.347656 201.214844 241.53125 201.046875 241.574219 Z M 207.570312 239.917969 C 206.402344 240.183594 205.046875 240.625 204.082031 240.761719 C 203.882812 240.785156 203.5625 240.832031 203.34375 240.511719 C 202.957031 239.933594 202.734375 239.726562 202.597656 239.097656 C 202.535156 238.808594 202.589844 238.601562 202.757812 238.511719 C 203.433594 238.160156 205.34375 237.660156 206.195312 237.589844 C 206.644531 237.558594 206.863281 237.71875 207.070312 238.023438 C 207.289062 238.320312 207.761719 239.042969 207.777344 239.515625 C 207.785156 239.691406 207.730469 239.886719 207.570312 239.917969 Z M 213.976562 238.238281 C 212.8125 238.496094 211.464844 238.945312 210.492188 239.074219 C 210.292969 239.105469 209.976562 239.15625 209.761719 238.824219 C 209.375 238.246094 209.144531 238.039062 209.015625 237.421875 C 208.949219 237.132812 209.007812 236.921875 209.175781 236.835938 C 209.847656 236.472656 211.753906 235.976562 212.613281 235.910156 C 213.054688 235.871094 213.277344 236.039062 213.488281 236.34375 C 213.695312 236.640625 214.179688 237.355469 214.1875 237.839844 C 214.195312 238.015625 214.144531 238.199219 213.976562 238.238281 Z M 220.347656 236.527344 C 219.179688 236.792969 217.824219 237.234375 216.859375 237.371094 C 216.660156 237.394531 216.339844 237.445312 216.121094 237.113281 C 215.734375 236.546875 215.511719 236.335938 215.375 235.710938 C 215.320312 235.421875 215.367188 235.210938 215.535156 235.125 C 216.210938 234.769531 218.121094 234.273438 218.972656 234.199219 C 219.421875 234.167969 219.640625 234.335938 219.855469 234.632812 C 220.066406 234.929688 220.539062 235.652344 220.554688 236.128906 C 220.554688 236.304688 220.507812 236.496094 220.347656 236.527344 Z M 226.601562 234.898438 C 225.566406 235.132812 224.363281 235.523438 223.492188 235.644531 C 223.316406 235.667969 223.035156 235.710938 222.835938 235.421875 C 222.5 234.90625 222.289062 234.722656 222.167969 234.160156 C 222.121094 233.902344 222.160156 233.71875 222.3125 233.636719 C 222.914062 233.324219 224.617188 232.882812 225.382812 232.820312 C 225.773438 232.785156 225.976562 232.9375 226.160156 233.203125 C 226.351562 233.46875 226.777344 234.113281 226.785156 234.539062 C 226.792969 234.699219 226.746094 234.867188 226.601562 234.898438 Z M 232.144531 233.390625 C 231.105469 233.621094 229.894531 234.023438 229.035156 234.136719 C 228.859375 234.160156 228.578125 234.207031 228.375 233.917969 C 228.039062 233.40625 227.832031 233.210938 227.710938 232.65625 C 227.660156 232.402344 227.703125 232.214844 227.855469 232.136719 C 228.457031 231.816406 230.160156 231.371094 230.921875 231.316406 C 231.316406 231.277344 231.515625 231.429688 231.703125 231.695312 C 231.894531 231.96875 232.320312 232.609375 232.328125 233.035156 C 232.335938 233.1875 232.289062 233.355469 232.144531 233.390625 Z M 238.007812 231.773438 C 236.96875 232.007812 235.355469 232.496094 234.496094 232.617188 C 234.3125 232.640625 234.03125 232.683594 233.835938 232.394531 C 233.492188 231.886719 233.285156 231.695312 233.171875 231.140625 C 233.113281 230.882812 233.164062 230.691406 233.308594 230.617188 C 233.910156 230.296875 236.023438 229.757812 236.792969 229.695312 C 237.1875 229.664062 237.378906 229.816406 237.570312 230.078125 C 237.757812 230.34375 238.183594 230.988281 238.199219 231.414062 C 238.199219 231.574219 238.160156 231.742188 238.007812 231.773438 Z M 243.972656 230.214844 C 243 230.441406 241.484375 230.898438 240.671875 231.011719 C 240.503906 231.035156 240.238281 231.074219 240.054688 230.804688 C 239.742188 230.320312 239.546875 230.144531 239.433594 229.621094 C 239.378906 229.382812 239.425781 229.210938 239.5625 229.132812 C 240.132812 228.84375 242.109375 228.328125 242.824219 228.273438 C 243.203125 228.242188 243.378906 228.386719 243.554688 228.632812 C 243.730469 228.882812 244.132812 229.484375 244.140625 229.886719 C 244.148438 230.03125 244.109375 230.191406 243.972656 230.214844 Z M 252.277344 227.765625 C 251.304688 227.984375 246.960938 229.269531 246.148438 229.382812 C 245.980469 229.398438 245.714844 229.445312 245.53125 229.171875 C 245.210938 228.691406 245.015625 228.515625 244.914062 227.992188 C 244.855469 227.75 244.90625 227.574219 245.039062 227.503906 C 245.601562 227.203125 250.421875 225.878906 251.136719 225.824219 C 251.503906 225.792969 251.691406 225.9375 251.867188 226.183594 C 252.042969 226.433594 252.445312 227.035156 252.453125 227.4375 C 252.460938 227.582031 252.414062 227.734375 252.277344 227.765625 Z M 181.652344 251.257812 C 179.855469 251.8125 177.132812 252.710938 175.628906 253.074219 C 175.324219 253.144531 174.828125 253.265625 174.480469 252.894531 C 173.863281 252.253906 173.492188 252.027344 173.269531 251.273438 C 173.15625 250.921875 173.238281 250.648438 173.492188 250.511719 C 174.53125 249.933594 177.78125 249.136719 179.105469 248.878906 C 179.796875 248.75 180.480469 248.640625 180.816406 248.96875 C 181.15625 249.304688 181.925781 250.117188 181.964844 250.710938 C 181.980469 250.929688 181.910156 251.175781 181.652344 251.257812 Z M 188.761719 249.097656 C 187.515625 249.425781 185.621094 250.078125 184.585938 250.261719 C 184.367188 250.300781 184.03125 250.359375 183.796875 250.019531 C 183.386719 249.425781 183.148438 249.210938 183.003906 248.550781 C 182.9375 248.246094 182.992188 248.019531 183.171875 247.917969 C 183.894531 247.507812 186.382812 246.777344 187.296875 246.664062 C 187.773438 246.609375 188.003906 246.777344 188.230469 247.089844 C 188.457031 247.402344 188.96875 248.148438 188.984375 248.65625 C 188.984375 248.847656 188.9375 249.050781 188.761719 249.097656 Z M 196.164062 247.257812 C 194.960938 247.539062 193.128906 248.09375 192.125 248.238281 C 191.917969 248.261719 191.59375 248.308594 191.363281 247.972656 C 190.96875 247.378906 190.734375 247.160156 190.589844 246.519531 C 190.527344 246.222656 190.582031 246.003906 190.761719 245.917969 C 191.457031 245.546875 193.859375 244.929688 194.75 244.855469 C 195.210938 244.816406 195.433594 244.992188 195.652344 245.308594 C 195.867188 245.613281 196.367188 246.359375 196.382812 246.847656 C 196.382812 247.035156 196.332031 247.226562 196.164062 247.257812 Z M 202.96875 245.410156 C 201.800781 245.675781 200.035156 246.222656 199.0625 246.359375 C 198.863281 246.382812 198.542969 246.429688 198.324219 246.101562 C 197.949219 245.53125 197.714844 245.316406 197.578125 244.695312 C 197.515625 244.40625 197.570312 244.199219 197.738281 244.109375 C 198.414062 243.757812 200.742188 243.15625 201.601562 243.089844 C 202.042969 243.050781 202.269531 243.21875 202.476562 243.515625 C 202.6875 243.820312 203.160156 244.535156 203.175781 245.015625 C 203.183594 245.195312 203.136719 245.378906 202.96875 245.410156 Z M 237.949219 235.871094 C 236.785156 236.136719 206.675781 244.558594 205.707031 244.6875 C 205.503906 244.71875 205.191406 244.769531 204.976562 244.4375 C 204.589844 243.867188 204.355469 243.652344 204.226562 243.027344 C 204.164062 242.738281 204.21875 242.527344 204.386719 242.449219 C 205.0625 242.085938 235.726562 233.613281 236.585938 233.550781 C 237.027344 233.507812 237.242188 233.679688 237.460938 233.976562 C 237.667969 234.28125 238.140625 234.996094 238.160156 235.476562 C 238.167969 235.644531 238.117188 235.839844 237.949219 235.871094 Z M 243.515625 233.824219 C 242.503906 234.09375 240.960938 234.625 240.117188 234.777344 C 239.949219 234.800781 239.667969 234.859375 239.484375 234.578125 C 239.144531 234.09375 238.945312 233.917969 238.832031 233.378906 C 238.777344 233.132812 238.824219 232.945312 238.96875 232.867188 C 239.554688 232.539062 241.578125 231.933594 242.328125 231.847656 C 242.710938 231.796875 242.90625 231.933594 243.089844 232.191406 C 243.273438 232.441406 243.683594 233.050781 243.699219 233.46875 C 243.707031 233.621094 243.660156 233.78125 243.515625 233.824219 Z M 249.546875 232.328125 C 248.566406 232.554688 247.082031 233.011719 246.261719 233.125 C 246.09375 233.148438 245.828125 233.1875 245.644531 232.914062 C 245.320312 232.433594 245.128906 232.25 245.015625 231.726562 C 244.960938 231.484375 245.007812 231.308594 245.144531 231.238281 C 245.714844 230.9375 247.675781 230.433594 248.398438 230.378906 C 248.765625 230.34375 248.953125 230.480469 249.136719 230.738281 C 249.3125 230.988281 249.707031 231.589844 249.722656 232 C 249.722656 232.144531 249.683594 232.304688 249.546875 232.328125 Z M 255.085938 230.828125 C 254.140625 231.042969 252.703125 231.484375 251.90625 231.589844 C 251.746094 231.613281 251.488281 231.652344 251.3125 231.390625 C 251 230.921875 250.816406 230.746094 250.703125 230.242188 C 250.65625 230.007812 250.695312 229.839844 250.832031 229.765625 C 251.386719 229.476562 253.273438 228.988281 253.972656 228.929688 C 254.339844 228.898438 254.515625 229.035156 254.6875 229.285156 C 254.863281 229.527344 255.25 230.113281 255.257812 230.496094 C 255.265625 230.648438 255.222656 230.792969 255.085938 230.828125 " fill-opacity="1" fill-rule="evenodd"/><path fill="#000000" d="M 182.640625 142.519531 C 185.066406 142.308594 186.90625 145.90625 186.753906 150.550781 C 186.601562 155.191406 184.519531 159.117188 182.09375 159.328125 C 179.675781 159.542969 177.839844 155.945312 177.984375 151.304688 C 178.136719 146.664062 180.222656 142.726562 182.640625 142.519531 " fill-opacity="1" fill-rule="evenodd"/><path fill="#000000" d="M 199.890625 141.023438 C 202.316406 140.816406 204.15625 144.414062 204.003906 149.054688 C 203.851562 153.699219 201.769531 157.625 199.34375 157.832031 C 196.925781 158.050781 195.089844 154.453125 195.234375 149.8125 C 195.386719 145.167969 197.472656 141.234375 199.890625 141.023438 " fill-opacity="1" fill-rule="evenodd"/><path fill="#000000" d="M 212 160.902344 C 210.691406 165.671875 207.882812 169.984375 204.132812 173.222656 C 200.316406 176.503906 195.539062 178.691406 190.40625 179.140625 C 185.273438 179.582031 180.617188 178.214844 176.996094 175.566406 C 173.4375 172.964844 170.882812 169.125 169.878906 164.546875 C 169.519531 164.492188 169.195312 164.355469 168.925781 164.152344 C 168.488281 163.839844 168.183594 163.367188 168.082031 162.804688 C 168.007812 162.417969 168.273438 162 168.675781 161.882812 C 169.078125 161.761719 169.46875 161.976562 169.542969 162.371094 C 169.582031 162.605469 169.710938 162.796875 169.886719 162.925781 C 170.054688 163.046875 170.28125 163.117188 170.53125 163.09375 C 170.777344 163.070312 171.011719 162.964844 171.195312 162.8125 C 171.382812 162.652344 171.519531 162.4375 171.574219 162.195312 C 171.679688 161.785156 172.078125 161.503906 172.480469 161.550781 C 172.875 161.601562 173.117188 161.976562 173.019531 162.378906 C 172.875 162.957031 172.539062 163.488281 172.078125 163.882812 C 171.878906 164.058594 171.636719 164.210938 171.390625 164.332031 C 172.359375 168.476562 174.707031 171.960938 177.957031 174.335938 C 181.332031 176.804688 185.667969 178.070312 190.453125 177.664062 C 195.242188 177.246094 199.691406 175.210938 203.238281 172.152344 C 206.660156 169.199219 209.246094 165.277344 210.492188 160.941406 C 210.25 160.871094 210.027344 160.757812 209.824219 160.613281 C 209.398438 160.300781 209.09375 159.824219 208.980469 159.261719 C 208.910156 158.878906 209.183594 158.460938 209.585938 158.339844 C 209.984375 158.21875 210.371094 158.4375 210.445312 158.828125 C 210.492188 159.0625 210.613281 159.246094 210.789062 159.382812 C 210.964844 159.503906 211.191406 159.578125 211.441406 159.550781 C 211.6875 159.527344 211.921875 159.425781 212.097656 159.269531 C 212.28125 159.109375 212.425781 158.894531 212.484375 158.652344 C 212.589844 158.242188 212.988281 157.960938 213.382812 158.011719 C 213.785156 158.058594 214.027344 158.429688 213.929688 158.835938 C 213.785156 159.414062 213.449219 159.945312 212.988281 160.339844 C 212.699219 160.589844 212.363281 160.78125 212 160.902344 " fill-opacity="1" fill-rule="nonzero"/><path fill="#fefefe" d="M 183.636719 144.351562 C 184.230469 144.292969 184.679688 145.175781 184.648438 146.316406 C 184.609375 147.449219 184.101562 148.414062 183.507812 148.460938 C 182.914062 148.519531 182.464844 147.632812 182.496094 146.503906 C 182.535156 145.363281 183.042969 144.398438 183.636719 144.351562 " fill-opacity="1" fill-rule="evenodd"/><path fill="#fefefe" d="M 201.167969 142.832031 C 201.761719 142.777344 202.210938 143.660156 202.171875 144.800781 C 202.140625 145.933594 201.625 146.894531 201.03125 146.945312 C 200.445312 147 199.988281 146.117188 200.027344 144.984375 C 200.066406 143.84375 200.574219 142.878906 201.167969 142.832031 " fill-opacity="1" fill-rule="evenodd"/><path fill="#fefefe" d="M 150.523438 217.703125 C 155.882812 216.886719 185.289062 210.667969 188.785156 210.164062 C 189.136719 210.113281 189.113281 210.066406 189.203125 210.421875 C 189.347656 210.949219 189.410156 211.824219 189.234375 212.394531 C 189.167969 212.613281 189.066406 212.78125 188.921875 212.878906 C 188.261719 213.304688 158.445312 219.40625 150.523438 220.667969 C 150.027344 220.628906 149.898438 217.800781 150.523438 217.703125 " fill-opacity="1" fill-rule="evenodd"/><g fill="#000000" fill-opacity="1"><g transform="translate(121.2425, 95.267801)"><g><path d="M 6.917969 -37.613281 L -8.191406 -32.351562 L 2.738281 -0.953125 L 17.847656 -6.214844 C 28.046875 -9.761719 30.078125 -18.835938 27.183594 -27.144531 C 24.308594 -35.40625 17.117188 -41.160156 6.917969 -37.613281 Z M 14.253906 -11.367188 L 7.925781 -9.164062 L 0.957031 -29.183594 L 7.285156 -31.386719 C 13.65625 -33.605469 17.390625 -31.253906 19.722656 -24.546875 C 22.039062 -17.890625 20.675781 -13.601562 14.253906 -11.367188 Z M 14.253906 -11.367188 "/></g></g></g><g fill="#000000" fill-opacity="1"><g transform="translate(152.83273, 83.826657)"><g><path d="M 28.6875 -3.039062 L 36.292969 -3.84375 L 21.15625 -35.675781 L 9.621094 -34.453125 L 1.492188 -0.15625 L 9.097656 -0.964844 L 10.769531 -7.976562 L 25.582031 -9.546875 Z M 12.191406 -14.011719 L 15.941406 -29.84375 L 22.929688 -15.148438 Z M 12.191406 -14.011719 "/></g></g></g><g fill="#000000" fill-opacity="1"><g transform="translate(187.766897, 80.098908)"><g><path d="M 34.683594 -29.539062 L 5.371094 -32.851562 L 4.699219 -26.890625 L 15.578125 -25.660156 L 12.519531 1.414062 L 20.070312 2.265625 L 23.128906 -24.808594 L 34.007812 -23.578125 Z M 34.683594 -29.539062 "/></g></g></g><g fill="#000000" fill-opacity="1"><g transform="translate(217.686666, 82.892384)"><g><path d="M 27.285156 9.363281 L 34.519531 11.84375 L 34.246094 -23.398438 L 23.273438 -27.164062 L 1.417969 0.488281 L 8.652344 2.96875 L 13.128906 -2.683594 L 27.222656 2.152344 Z M 16.96875 -7.550781 L 27.054688 -20.316406 L 27.183594 -4.046875 Z M 16.96875 -7.550781 "/></g></g></g><g fill="#000000" fill-opacity="1"><g transform="translate(80.22253, 290.619274)"><g/></g></g><g fill="#000000" fill-opacity="1"><g transform="translate(91.607742, 299.992488)"><g><path d="M 6.953125 -8.679688 C 4.277344 -3.25 4.816406 3.59375 14.429688 8.835938 C 23.558594 13.816406 29.148438 12.023438 32.285156 6.273438 C 35.058594 1.183594 33.609375 -3.253906 28.042969 -7.144531 L 22.347656 -11.21875 C 20.078125 -12.796875 19.761719 -14.621094 20.695312 -16.332031 C 21.941406 -18.613281 24.617188 -19.035156 28.171875 -17.09375 C 32.035156 -14.988281 33.007812 -12.179688 31.875 -9.265625 L 38.414062 -5.699219 C 40.890625 -11.070312 39.589844 -17.246094 30.855469 -22.011719 C 22.644531 -26.488281 16.636719 -24.867188 13.765625 -19.601562 C 11.132812 -14.773438 12.472656 -10.339844 17.316406 -6.898438 L 23.3125 -2.546875 C 25.710938 -0.785156 26.40625 1.074219 25.210938 3.269531 C 23.941406 5.597656 21.652344 6.34375 17.222656 3.925781 C 12.613281 1.410156 11.925781 -1.925781 13.449219 -5.136719 Z M 6.953125 -8.679688 "/></g></g></g><g fill="#000000" fill-opacity="1"><g transform="translate(123.830814, 317.439719)"><g><path d="M 27.800781 7.703125 L 35.171875 9.746094 L 32.777344 -25.417969 L 21.597656 -28.515625 L 1.445312 0.402344 L 8.816406 2.445312 L 12.945312 -3.46875 L 27.300781 0.511719 Z M 16.484375 -8.558594 L 25.785156 -21.90625 L 26.890625 -5.671875 Z M 16.484375 -8.558594 "/></g></g></g><g fill="#000000" fill-opacity="1"><g transform="translate(163.537184, 327.688288)"><g><path d="M 30.152344 -25.792969 L 30.449219 -31.785156 L 4.53125 -33.0625 L 2.894531 0.144531 L 10.484375 0.515625 L 11.152344 -13.015625 L 27.78125 -12.195312 L 28.058594 -17.839844 L 11.429688 -18.65625 L 11.828125 -26.699219 Z M 30.152344 -25.792969 "/></g></g></g><g fill="#000000" fill-opacity="1"><g transform="translate(197.255359, 329.103694)"><g><path d="M 9.464844 -7.566406 L 8.242188 -15.570312 L 25.042969 -18.140625 L 24.191406 -23.722656 L 7.386719 -21.15625 L 6.261719 -28.519531 L 24.550781 -31.3125 L 23.644531 -37.246094 L -2.15625 -33.304688 L 2.867188 -0.4375 L 28.8125 -4.402344 L 27.898438 -10.382812 Z M 9.464844 -7.566406 "/></g></g></g><g fill="#000000" fill-opacity="1"><g transform="translate(231.360357, 323.650061)"><g><path d="M 17.503906 -42.058594 L -10.117188 -31.710938 L -8.011719 -26.09375 L 2.238281 -29.933594 L 11.796875 -4.417969 L 18.914062 -7.085938 L 9.355469 -32.601562 L 19.609375 -36.441406 Z M 17.503906 -42.058594 "/></g></g></g><g fill="#000000" fill-opacity="1"><g transform="translate(264.854724, 310.869565)"><g><path d="M 3.164062 -41.6875 L 4.835938 -29.007812 C 5.132812 -26.992188 5.441406 -25.046875 5.777344 -23.058594 C 4.183594 -24.230469 2.53125 -25.304688 0.851562 -26.421875 L -10.003906 -33.140625 L -17.132812 -28.515625 L 6.019531 -15.886719 L 11.492188 -7.457031 L 17.867188 -11.59375 L 12.394531 -20.023438 L 10.25 -46.285156 Z M 3.164062 -41.6875 "/></g></g></g></svg>