<?xml version="1.0" encoding="UTF-8" standalone="no"?>
<svg
   width="500"
   zoomAndPan="magnify"
   viewBox="0 0 375 374.999991"
   height="500"
   preserveAspectRatio="xMidYMid meet"
   version="1.0"
   id="svg69"
   sodipodi:docname="logo.svg"
   inkscape:version="1.3.2 (1:1.3.2+202311252150+091e20ef0f)"
   xmlns:inkscape="http://www.inkscape.org/namespaces/inkscape"
   xmlns:sodipodi="http://sodipodi.sourceforge.net/DTD/sodipodi-0.dtd"
   xmlns="http://www.w3.org/2000/svg"
   xmlns:svg="http://www.w3.org/2000/svg">
  <sodipodi:namedview
     id="namedview69"
     pagecolor="#505050"
     bordercolor="#eeeeee"
     borderopacity="1"
     inkscape:showpageshadow="0"
     inkscape:pageopacity="0"
     inkscape:pagecheckerboard="0"
     inkscape:deskcolor="#d1d1d1"
     inkscape:zoom="1.4112257"
     inkscape:cx="286.63026"
     inkscape:cy="117.98254"
     inkscape:window-width="1898"
     inkscape:window-height="1016"
     inkscape:window-x="10"
     inkscape:window-y="52"
     inkscape:window-maximized="1"
     inkscape:current-layer="svg69" />
  <defs
     id="defs7">
    <g
       id="g1" />
    <clipPath
       id="ea1c2a93c5">
      <path
         d="M 26.675781 26.675781 L 348.324219 26.675781 L 348.324219 348.324219 L 26.675781 348.324219 Z M 26.675781 26.675781 "
         clip-rule="nonzero"
         id="path1" />
    </clipPath>
    <clipPath
       id="b1c03705d4">
      <path
         d="M 187.5 26.675781 C 98.679688 26.675781 26.675781 98.679688 26.675781 187.5 C 26.675781 276.320312 98.679688 348.324219 187.5 348.324219 C 276.320312 348.324219 348.324219 276.320312 348.324219 187.5 C 348.324219 98.679688 276.320312 26.675781 187.5 26.675781 Z M 187.5 26.675781 "
         clip-rule="nonzero"
         id="path2" />
    </clipPath>
    <clipPath
       id="fee722bd10">
      <path
         d="M 187.5 26.675781 C 98.679688 26.675781 26.675781 98.679688 26.675781 187.5 C 26.675781 276.320312 98.679688 348.320312 187.5 348.320312 C 276.320312 348.320312 348.320312 276.320312 348.320312 187.5 C 348.320312 98.679688 276.320312 26.675781 187.5 26.675781 Z M 187.5 26.675781 "
         clip-rule="nonzero"
         id="path4" />
    </clipPath>
    <clipPath
       clipPathUnits="userSpaceOnUse"
       id="clipPath70">
      <g
         id="g71">
        <path
           d="M 108,105.64453 H 267.47656 V 269 H 108 Z m 0,0"
           clip-rule="nonzero"
           id="path70" />
      </g>
    </clipPath>
    <clipPath
       clipPathUnits="userSpaceOnUse"
       id="clipPath79">
      <g
         id="g81">
        <g
           id="g80">
          <path
             d="M 26.675781,26.675781 H 348.32031 V 348.32031 H 26.675781 Z m 0,0"
             clip-rule="nonzero"
             id="path79" />
        </g>
      </g>
    </clipPath>
    <clipPath
       clipPathUnits="userSpaceOnUse"
       id="clipPath82">
      <g
         id="g83">
        <path
           d="m 42.148438,175.71094 h 23.25 v 23.25 h -23.25 z m 0,0"
           clip-rule="nonzero"
           id="path82" />
      </g>
    </clipPath>
    <clipPath
       clipPathUnits="userSpaceOnUse"
       id="clipPath84">
      <g
         id="g85">
        <path
           d="m 309.27344,175.71094 h 23.25 v 23.25 h -23.25 z m 0,0"
           clip-rule="nonzero"
           id="path84" />
      </g>
    </clipPath>
    <clipPath
       id="6d37dfe10f">
      <path
         d="M 108,105.64453 H 267.47656 V 269 H 108 Z m 0,0"
         clip-rule="nonzero"
         id="path7" />
    </clipPath>
  </defs>
  <path
     fill="#000000"
     d="m 53.933594,175.71094 c -1.148438,9.70312 -2.082032,10.63672 -11.785156,11.78515 0.01953,0 0.03906,0.004 0.0625,0.004 9.644531,1.14844 10.574218,2.09375 11.722656,11.77734 1.148437,-9.70312 2.078125,-10.63281 11.78125,-11.78125 -9.703125,-1.14843 -10.632813,-2.08203 -11.78125,-11.78515 z m 0,0"
     fill-opacity="1"
     fill-rule="nonzero"
     id="path11"
     style="fill:#eff1f5"
     clip-path="url(#clipPath82)"
     inkscape:label="leftStar" />
  <path
     fill="#000000"
     d="m 321.05469,175.71094 c -1.14844,9.70312 -2.07813,10.63672 -11.78125,11.78515 0.0195,0 0.0391,0.004 0.0586,0.004 9.64844,1.14844 10.57813,2.09375 11.72266,11.77734 1.14843,-9.70312 2.08203,-10.63281 11.78515,-11.78125 -9.70312,-1.14843 -10.63672,-2.08203 -11.78515,-11.78515 z m 0,0"
     fill-opacity="1"
     fill-rule="nonzero"
     id="path12"
     style="fill:#eff1f5"
     clip-path="url(#clipPath84)"
     inkscape:label="rightStar" />
  <path
     id="path13"
     clip-path="url(#clipPath70)"
     d="m 197.13574,105.9082 c -1.04883,-0.0449 -2.25539,-0.0298 -3.75732,0.0366 -11.93357,0.53125 -64.07765,6.01612 -67.81202,7.85596 -1.64841,0.8125 -2.59423,2.76123 -2.62939,5.01123 -0.23828,14.57419 -0.0229,27.68365 0.0278,41.58984 0.008,1.00391 0.0625,1.85644 0.15235,2.62207 0.24609,2.10156 0.42627,3.55468 0.75439,6.01172 0.10547,0.78906 0.0151,1.47949 -0.47314,1.63184 -2.58594,0.82031 -3.55078,1.14844 -5.10938,1.83984 -1.01172,0.44922 -1.46924,1.03565 -1.37549,2.33643 -0.0391,2.08594 0,4 0,4.69922 0.008,0.91406 -0.0693,1.15674 -0.70605,1.59814 -1.53125,1.0586 -3.34033,2.34326 -5.04346,4.16748 -2.82422,3.02735 -3.47607,8.04688 -1.98779,11.83594 2.39844,6.15231 10.80811,7.68752 13.75342,16.64062 2.43356,7.36328 2.1138,17.7427 8.33642,22.0708 6.625,4.59375 11.67972,5.21876 20.57813,6.22266 0.64844,0.082 0.25342,1.38282 0.48779,3.14063 0.19922,1.58981 12.06299,18.56643 14.89893,22.23046 0.94528,1.21094 2.03906,1.77345 4.48828,1.08985 33.31238,-9.23434 57.90929,-16.40726 94.59667,-27.6416 0.5625,-0.17578 0.92286,-0.60889 0.92286,-1.10889 -0.21484,-2 -0.1924,-3.80421 -0.36036,-5.14014 -0.082,-0.69922 -0.21875,-1.27783 -0.46875,-1.66845 -4.44138,-5.8086 -8.78466,-11.39066 -13.33154,-17.07422 -2.13281,-2.16016 -2.17578,-2.29686 -5.42578,-2.03907 -21.38666,4.77734 -64.50448,14.07865 -94.68017,21.36768 -0.36719,0.0977 -0.67969,0.34668 -0.67969,0.96387 -0.0156,0.9414 -0.0347,1.66506 -0.11279,3.12597 -0.0234,0.48047 0.0977,0.5459 -0.32813,0.51856 -9.00387,-0.42188 -15.51614,-2.76907 -19.97314,-5.92529 -5.39844,-3.82031 -5.17871,-17.9253 -8.56934,-23.91358 -3.54296,-6.24216 -9.77346,-8.56298 -12.43359,-13.62158 -1.52344,-2.90625 -0.48145,-7.23877 1.57324,-9.59033 0.51562,-0.58594 2.25048,-2.23047 3.19189,-2.75391 0.63281,-0.35547 1.49268,-0.0386 1.49268,0.57862 0.0312,2.12887 0.26465,4.88232 0.44824,6.59326 0.12891,0.65625 0.46583,1.45312 0.87598,2.21484 6.27341,11.77341 13.71878,25.6763 20.69531,36.82471 1.11719,1.77344 2.39404,3.31641 3.92139,3.53906 0.63281,0.0977 1.98047,0.0156 3.46875,-0.32813 16.43744,-3.80466 68.35897,-15.23489 97.28466,-22.29345 0.94141,-0.25781 1.4375,-1.26074 1.53516,-2.5459 0.24609,-3.28515 0.29736,-11.4458 0.19189,-14.3833 -0.0547,-1.51172 -0.38625,-2.78565 -0.89794,-3.54346 -0.57813,-0.85156 -7.01273,-5.53125 -8.63379,-6.96094 -0.9961,-0.86715 -1.06201,-1.01171 -1.08545,-1.86328 l 0.082,-56.95605 c -0.36328,-5.53125 -2.36282,-6.33593 -6.97998,-8.26172 l -21.92578,-8.48144 c -4.0957,-1.45313 -5.83155,-2.12842 -8.97803,-2.26319 z m -0.11865,2.1416 c 0.60351,-0.004 1.29639,0.0659 2.01416,0.30616 9.61326,3.24608 19.1714,7.17139 27.89795,10.4956 1.46484,0.55469 2.49316,0.97266 0.0439,0.94922 -10.2656,-0.13672 -69.43019,6.21485 -79.64502,8.4375 -2.74608,0.60547 -3.80421,-0.125 -5.59716,-1.62891 -3.33203,-2.78514 -9.04348,-7.08154 -13.10596,-9.9331 -0.60156,-0.42578 -0.81299,-1.16406 -0.0982,-1.38281 35.02338,-4.54297 45.51274,-5.38674 67.91895,-7.21875 0.17871,-0.0137 0.37012,-0.0237 0.57129,-0.0249 z m -71.19287,9.42481 c 0.29951,-0.033 0.73828,0.2168 1.37109,0.80713 2.89844,2.69139 9.88673,6.95654 12.91406,9.71045 2.67578,2.42576 3.45264,2.49658 3.08936,5.86377 -0.0703,18.34761 -0.4336,37.57426 -0.375,60.5039 0.008,2.85937 0.1914,4.23729 -1.6875,1.08106 -5.05859,-8.49609 -11.4375,-19.70655 -14.82422,-26.26905 -0.54687,-1.05859 -1.14014,-6.03857 -1.23779,-7.33154 -0.44141,-1.93359 0.15234,-42.03955 0.15234,-42.12158 -0.0147,-1.3501 0.0985,-2.18913 0.59766,-2.24414 z m 104.00244,4.48535 c 1.39896,0.008 2.51709,0.61768 2.90332,2.31299 0.23828,17.24211 0.33642,40.72371 -0.31201,58.45019 -0.0664,1.79688 -0.80518,3.37793 -2.82862,4.11621 -26.09363,4.85937 -54.1368,11.05128 -80.15625,14.92237 -5.12496,0.76562 -4.19043,-2.05421 -4.10449,-6.18311 0.17578,-17.50773 0.0586,-34.66023 0.0234,-51.72656 -0.0156,-4.28125 -0.0781,-7.17972 0.15234,-9.16406 0.45313,-3.75 1.9922,-4.23926 7.10157,-4.64942 27.69128,-3.87106 48.88292,-6.23782 76.60546,-8.04638 0.20996,-0.022 0.41539,-0.0334 0.61524,-0.0322 z m -9.24903,7.50146 c -11.69133,0.0781 -50.73051,3.60548 -62.08593,6.45704 -4.32812,1.15621 -5.33936,2.82031 -5.33936,6.80859 0,15.10539 -0.28076,31.24955 0.10987,43.3667 0.19528,5.83981 4.19434,6.75439 10.02246,6.27392 19.69914,-1.62106 47.96976,-5.85596 58.55566,-10.32861 1.72656,-0.73047 3.17187,-1.69583 3.55078,-3.84814 2.66406,-15.30465 0.95264,-35.42924 0.18311,-43.7417 -0.34375,-3.16406 -2.5044,-4.9878 -4.99659,-4.9878 z m -1.92627,1.86182 c 0.69727,-0.0157 1.29029,-0.0151 1.76661,0.001 2.53121,0.0898 3.50732,3.08935 3.65185,5.18701 0.53125,8.95308 1.83298,29.5391 -0.97558,40.91015 -0.17969,0.72266 -0.85254,1.42969 -1.93067,2.1211 -9.61324,6.14059 -51.25391,10.63232 -58.33594,11.08154 -5.87887,0.36719 -7.75781,-0.75294 -7.75781,-5.66309 -0.80468,-14.71086 -0.37109,-33.08646 -0.0703,-42.27392 0,-2.92187 1.91846,-4.76123 4.39893,-5.14014 14.89372,-2.28149 48.79407,-5.98861 59.25292,-6.22412 z m -18.53466,9.69141 c -0.0746,-8.8e-4 -0.14978,0.002 -0.22559,0.009 -2.41797,0.21093 -4.50439,4.14453 -4.65674,8.78906 -0.14453,4.64057 1.69092,8.23877 4.10889,8.02002 2.42578,-0.20703 4.50879,-4.13282 4.66113,-8.77735 0.14759,-4.49555 -1.57458,-8.01334 -3.88769,-8.04052 z m -17.25,1.4956 c -0.0746,-7.6e-4 -0.14978,0.002 -0.22559,0.009 -2.41797,0.20703 -4.50439,4.14556 -4.65674,8.78613 -0.14453,4.64062 1.69092,8.2378 4.10889,8.02295 2.42578,-0.21093 4.50879,-4.13677 4.66113,-8.77734 0.14759,-4.49939 -1.57458,-8.01689 -3.88769,-8.04053 z m 18.35595,0.31934 c 0.56612,0.003 0.98706,0.8667 0.94922,1.97168 -0.0312,1.13281 -0.54736,2.09375 -1.14111,2.14453 -0.58594,0.0547 -1.04248,-0.82861 -1.00342,-1.96143 0.0391,-1.14062 0.54742,-2.10498 1.14111,-2.15185 0.0186,-0.002 0.0359,-0.003 0.0542,-0.003 z m -17.53125,1.51904 c 0.56613,-4.1e-4 0.98682,0.86231 0.95655,1.96729 -0.0391,1.13281 -0.5459,2.09765 -1.13965,2.14453 -0.59375,0.0586 -1.04346,-0.82813 -1.01221,-1.95703 0.0391,-1.14063 0.54742,-2.10498 1.14111,-2.15186 0.0186,-0.002 0.0359,-0.003 0.0542,-0.003 z m 29.54444,13.65967 c -0.34201,0.0254 -0.65918,0.28564 -0.75147,0.64453 -0.0586,0.24219 -0.20312,0.45654 -0.38672,0.6167 -0.17578,0.15625 -0.41015,0.25781 -0.65625,0.28125 -0.25,0.0273 -0.47607,-0.0474 -0.65185,-0.16846 -0.17578,-0.13672 -0.29736,-0.31933 -0.34424,-0.55371 -0.0742,-0.39062 -0.46143,-0.61035 -0.85986,-0.48926 -0.40235,0.1211 -0.6753,0.54004 -0.60498,0.92286 0.11328,0.56245 0.41797,1.03808 0.84375,1.35058 0.20312,0.14453 0.42582,0.25781 0.66796,0.32813 -1.24605,4.33589 -3.83203,8.25879 -7.2539,11.21191 -3.54687,3.05859 -7.9961,5.09277 -12.78516,5.51074 -4.78511,0.40625 -9.12158,-0.85942 -12.49658,-3.32812 -3.25,-2.375 -5.59668,-5.85889 -6.56543,-10.00342 0.24609,-0.12109 0.48779,-0.27393 0.68701,-0.44971 0.46094,-0.39453 0.79737,-0.9248 0.9419,-1.50293 0.0977,-0.40234 -0.14453,-0.77832 -0.53907,-0.8291 -0.4023,-0.0469 -0.80126,0.23438 -0.90673,0.64453 -0.0547,0.24219 -0.1919,0.45801 -0.3794,0.61817 -0.18359,0.15234 -0.41748,0.25781 -0.66357,0.28125 -0.25,0.0234 -0.47656,-0.0474 -0.64453,-0.16846 -0.17578,-0.12891 -0.30518,-0.3208 -0.34424,-0.55518 -0.0742,-0.39453 -0.46485,-0.60888 -0.86719,-0.48779 -0.40234,0.11719 -0.66748,0.53467 -0.59326,0.92139 0.10156,0.5625 0.40625,1.03515 0.84375,1.34765 0.26953,0.20313 0.59424,0.34082 0.95361,0.39551 1.00391,4.57812 3.55766,8.417 7.11621,11.01856 3.62109,2.64839 8.27784,4.01562 13.41065,3.57421 5.13276,-0.44917 9.91065,-2.63676 13.72705,-5.91796 3.74995,-3.23828 6.55762,-7.54981 7.86621,-12.31934 0.36328,-0.12109 0.69971,-0.3125 0.98877,-0.5625 0.46094,-0.39453 0.79736,-0.92627 0.94189,-1.50439 0.0977,-0.40625 -0.1455,-0.77784 -0.54785,-0.82471 -0.0493,-0.006 -0.0976,-0.007 -0.14648,-0.003 z m -88.09424,14.79492 c 0.51221,0.0229 0.79834,0.31006 1.13232,0.99756 3.64453,7.49998 10.53468,17.92922 15.95655,27.85107 0.41797,0.76172 1.08984,1.34815 1.82812,1.84424 0.66797,0.46094 1.69532,0.65235 2.91797,0.66797 3.29297,0.0469 80.93408,-14.96143 83.9458,-15.55518 0.5625,-0.11328 1.07764,-0.39453 1.54248,-0.71484 0.74609,-0.51562 1.23779,-0.95654 1.94092,-1.43701 0.68359,-0.46484 0.95752,-0.1875 1.6333,0.24609 1.28516,0.82031 3.07422,2.19581 4.05469,3.34424 0.875,1.01172 0.82763,1.21094 -0.25049,1.42969 -2.86719,0.57812 -5.40919,1.0498 -8.03027,1.57324 -27.23043,5.4375 -54.04694,10.59864 -82.60547,16.23926 -3.13281,0.49609 -6.21583,2.28076 -8.22363,-1.01221 -5.82422,-9.54295 -16.57326,-24.31202 -20.7334,-32.98389 -0.50781,-1.04295 1.01904,-1.48486 2.39795,-1.90283 1.24217,-0.36914 1.98095,-0.61035 2.49316,-0.5874 z m -5.41992,5.63965 c 0.16399,0.0326 0.34717,0.18603 0.52002,0.48633 3.23436,7.1406 19.3291,30.50391 20.24707,32.39062 0.38281,0.80078 0.61621,1.55957 0.64746,2.30567 0.23437,4.98045 0.29004,9.29199 0.13769,12.26074 -0.1289,2.63671 -0.5625,2.6914 -1.71093,0.84375 -4.19922,-6.73828 -16.95411,-30.63575 -19.73145,-35.46387 -0.0352,-0.0469 -0.69824,-8.46535 -0.6123,-12.08642 0.0122,-0.50782 0.22912,-0.7911 0.50244,-0.73682 z m 121.62597,14.9209 c 2.44141,-0.16016 1.94922,2.80078 1.95703,3.83203 0.0274,3.3164 -0.20703,6.85547 -0.11718,10.47656 -0.0274,1.55859 -0.24954,2.05029 -1.90576,2.4917 -31.51163,7.87888 -63.70761,14.01954 -95.43018,21.30469 -2.12109,0.49218 -2.37158,0.0976 -2.67627,-2.23828 -0.0781,-4.98047 0.29004,-9.87063 0.2666,-14.76123 -0.008,-1.16407 0.0234,-1.83252 1.34766,-2.09034 37.66004,-7.29294 69.04257,-13.7886 96.5581,-19.01513 z m -1.80175,4.79004 c -0.0356,-0.001 -0.0735,0.002 -0.1128,0.0103 -0.69531,0.14453 -3.51562,0.70654 -4.27734,0.90967 -0.63672,0.16797 -0.84277,1.65283 0.57129,1.2583 1.21094,-0.33594 2.60159,-0.48877 3.97265,-0.93018 0.49073,-0.15747 0.38008,-1.22747 -0.1538,-1.24804 z m -8.98389,1.70068 c -0.0389,-0.005 -0.0791,-0.004 -0.12012,0.004 -7.68746,1.40625 -14.96931,3.00444 -29.98095,5.96924 -1.03516,0.19141 -0.90625,1.95753 0.25781,1.75049 9.57418,-2.0664 18.91361,-3.8247 30.08935,-6.01611 0.65552,-0.12818 0.33714,-1.63304 -0.24609,-1.70801 z m 7.21875,2.64258 c -0.15159,-5e-4 -0.31201,0.0132 -0.48047,0.0454 -0.86719,0.16797 -1.6167,1.17285 -1.34326,2.15332 0.23438,0.85156 0.84326,1.57324 2.10498,1.33887 1.07422,-0.19922 1.58984,-1.10938 1.5,-1.9336 -0.082,-0.84423 -0.72012,-1.60053 -1.78125,-1.604 z m -47.80957,5.80957 c -0.49951,-0.0278 -1.06445,0.10937 -1.48242,0.19336 -12.16011,2.19531 -24.72759,4.45752 -38.11817,7.34033 -1.16406,0.25781 -2.05371,0.81153 -2.13574,2.32324 -0.0781,1.52344 0.0109,2.16895 -0.009,3.19629 -0.0156,1.09766 0.9502,1.14844 2.92676,0.78516 12.51167,-2.28906 25.71494,-4.4961 38.01562,-7.57032 1.11719,-0.28125 1.91407,-0.71484 2.05079,-1.83984 0.14453,-0.54687 -0.0244,-3.14844 -0.16114,-3.63281 -0.15429,-0.57422 -0.5874,-0.76758 -1.08691,-0.79541 z m -0.98438,1.82666 c 0.14594,-0.0179 0.14942,0.022 0.2168,0.28857 0.14453,0.52735 0.2065,1.40284 0.0308,1.97315 -0.0664,0.21875 -0.16748,0.38574 -0.31201,0.4834 -0.66015,0.42574 -30.47759,6.52836 -38.39941,7.79003 -0.4961,-0.0391 -0.625,-2.86718 0,-2.96484 5.35933,-0.8164 34.76563,-7.03564 38.26172,-7.53955 0.0879,-0.0127 0.1535,-0.0248 0.20214,-0.0308 z m 59.92383,5.49609 c 0.76685,-0.008 1.47217,0.30469 2.4917,1.30371 1.73437,1.70313 8.76125,10.55176 11.36279,14.78614 1.49219,2.43357 1.20313,1.98339 -1.32422,2.74511 -29.78897,9.01169 -58.28133,17.11331 -86.92968,24.98438 -5.53906,1.48437 -3.78079,2.18454 -9.97998,-7.44434 -2.67578,-4.40232 -6.23096,-9.17969 -8.48877,-13.52344 -0.5,-0.96482 -0.44141,-1.96191 2.27344,-2.38769 27.37491,-6.51169 60.59432,-13.96438 89.79345,-20.36279 0.2832,-0.0606 0.54566,-0.0984 0.80127,-0.10108 z m 15.52588,20.18994 c 0.26569,-0.0225 0.43359,0.0835 0.53613,0.47022 0.21094,0.80078 0.043,1.72607 0.12891,2.3042 0.0156,0.15234 -0.0391,0.41015 -0.41016,0.5039 -29.12491,8.5156 -59.77355,18.45658 -93.5039,27.2417 -0.42578,0.11328 -0.64795,-0.007 -0.64014,-0.76904 0,-0.69141 0.0537,-1.51123 0.0615,-2.31592 0.008,-0.35156 0.008,-0.57812 0.45704,-0.70312 35.95691,-10.03122 66.62506,-19.42972 93.07031,-26.67188 0.11133,-0.0303 0.21173,-0.0525 0.30029,-0.0601 z m -109.90576,4.26123 c 0.0845,0.0108 0.22658,0.26368 0.51562,0.67383 2.01563,2.875 9.17188,13.81155 13.08985,20.27637 0.1914,0.39453 0.22656,0.94143 0.23437,1.34765 0.0156,0.70704 -0.0498,1.37501 -0.12011,2.07422 -0.0664,0.59375 -0.16895,0.84422 -0.61817,0.21534 -2.21875,-3.10547 -10.82766,-15.25831 -12.7456,-18.30909 -0.24219,-0.39453 -0.38672,-0.57715 -0.45703,-1.03418 -0.16407,-0.98826 -0.19483,-3.1914 -0.0659,-4.46484 0.0566,-0.55859 0.0825,-0.79004 0.16699,-0.7793 z"
     style="fill:#eff1f5"
     transform="matrix(1.1403381,0,0,1.1403381,471.38383,-136.88722)"
     inkscape:label="computer" />
  <g
     id="g87"
     inkscape:label="topWord">
    <path
       d="m 128.16047,57.65452 -15.10938,5.261719 10.92969,31.398437 15.10938,-5.261719 c 10.19921,-3.546875 12.23046,-12.621094 9.33593,-20.929687 -2.875,-8.261719 -10.0664,-14.015625 -20.26562,-10.46875 z m 7.33594,26.246093 -6.32813,2.203126 -6.96875,-20.019532 6.32813,-2.203125 c 6.37109,-2.21875 10.10546,0.132813 12.4375,6.839844 2.3164,6.65625 0.95312,10.945313 -5.46875,13.179687 z m 0,0"
       id="path37"
       style="fill:#eff1f5;fill-opacity:1" />
    <path
       d="m 181.52023,80.787595 7.60547,-0.804688 -15.13672,-31.832031 -11.53516,1.222656 -8.1289,34.296875 7.60547,-0.808594 1.67187,-7.011718 14.8125,-1.570313 z m -16.49609,-10.972657 3.75,-15.832031 6.98828,14.695312 z m 0,0"
       id="path39"
       style="fill:#eff1f5;fill-opacity:1" />
    <path
       d="m 222.45049,50.559846 -29.3125,-3.3125 -0.67187,5.960937 10.8789,1.230469 -3.05859,27.074218 7.55078,0.851563 3.0586,-27.074219 10.8789,1.230469 z m 0,0"
       id="path42"
       style="fill:#eff1f5;fill-opacity:1" />
    <path
       d="m 244.97183,92.255665 7.23437,2.480469 -0.27344,-35.242188 -10.97265,-3.765624 -21.85547,27.652343 7.23437,2.480469 4.47657,-5.652344 14.09375,4.835938 z m -10.31641,-16.914062 10.08594,-12.765625 0.1289,16.269531 z m 0,0"
       id="path45"
       style="fill:#eff1f5;fill-opacity:1" />
  </g>
  <g
     id="g86"
     inkscape:label="bottomWord">
    <path
       d="m 98.560867,291.3128 c -2.675781,5.42969 -2.136719,12.27344 7.476563,17.51563 9.12891,4.98047 14.71875,3.1875 17.85547,-2.5625 2.77344,-5.08985 1.32422,-9.52735 -4.24219,-13.41797 l -5.69531,-4.07422 c -2.26953,-1.57813 -2.58594,-3.40234 -1.65235,-5.11328 1.2461,-2.28125 3.92188,-2.70313 7.47657,-0.76172 3.86328,2.10547 4.83593,4.91406 3.70312,7.82812 l 6.53906,3.56641 c 2.47657,-5.37109 1.17579,-11.54687 -7.55859,-16.3125 -8.21094,-4.47656 -14.21875,-2.85547 -17.08984,2.41016 -2.63282,4.82812 -1.29297,9.26172 3.55078,12.70312 l 5.99609,4.35156 c 2.39844,1.76172 3.09375,3.6211 1.89844,5.81641 -1.26953,2.32813 -3.55859,3.07422 -7.98828,0.65625 -4.60938,-2.51562 -5.29688,-5.85156 -3.77344,-9.0625 z m 0,0"
       id="path51"
       style="fill:#eff1f5;fill-opacity:1" />
    <path
       d="m 151.63159,325.14285 7.37109,2.04296 -2.39453,-35.16406 -11.17968,-3.09765 -20.15235,28.91796 7.3711,2.04297 4.1289,-5.91406 14.35547,3.98047 z m -11.31641,-16.26172 9.30079,-13.34766 1.10546,16.23438 z m 0,0"
       id="path54"
       style="fill:#eff1f5;fill-opacity:1" />
    <path
       d="m 193.68952,301.89532 0.29688,-5.99219 -25.91797,-1.27734 -1.63672,33.20703 7.58984,0.37109 0.66797,-13.53125 16.62891,0.82032 0.27734,-5.64453 -16.6289,-0.81641 0.39843,-8.04297 z m 0,0"
       id="path57"
       style="fill:#eff1f5;fill-opacity:1" />
    <path
       d="m 206.7202,321.53728 -1.22265,-8.0039 16.80078,-2.57032 -0.85156,-5.58203 -16.80469,2.56641 -1.125,-7.36328 18.28906,-2.79297 -0.90625,-5.93359 -25.80078,3.9414 5.02344,32.86719 25.94531,-3.96484 -0.91406,-5.98047 z m 0,0"
       id="path60"
       style="fill:#eff1f5;fill-opacity:1" />
    <path
       d="m 248.86427,281.59147 -27.6211,10.34765 2.10547,5.61719 10.25,-3.83984 9.55859,25.51562 7.11719,-2.66797 -9.55859,-25.51562 10.2539,-3.83985 z m 0,0"
       id="path63"
       style="fill:#eff1f5;fill-opacity:1" />
    <path
       d="m 268.01878,269.18207 1.67188,12.67969 c 0.29687,2.01562 0.60547,3.96093 0.9414,5.94922 -1.59375,-1.17188 -3.24609,-2.2461 -4.92578,-3.36329 l -10.85547,-6.71875 -7.1289,4.625 23.15234,12.62891 5.47266,8.42969 6.375,-4.13672 -5.47266,-8.42969 -2.14453,-26.26172 z m 0,0"
       id="path66"
       style="fill:#eff1f5;fill-opacity:1" />
  </g>
  <circle
     style="fill:none;stroke:#eff1f5;stroke-width:3;stroke-linecap:round;stroke-linejoin:round;stroke-dasharray:none;paint-order:normal"
     id="path87"
     cx="187.5"
     cy="187.5"
     r="160.47841" />
  <path
     id="path14"
     d="m 202.0002,100.89647 c -0.2277,0.001 -0.44434,0.0127 -0.64662,0.0282 -25.36109,2.07363 -37.23204,3.02866 -76.8742,8.17074 -0.80907,0.2476 -0.57147,1.08324 0.10945,1.56517 4.59823,3.22762 11.06288,8.0906 14.83432,11.24305 2.02942,1.70223 3.22707,2.52904 6.3353,1.84373 11.56194,-2.51577 78.52892,-9.70496 90.14833,-9.55021 2.77217,0.0265 1.60994,-0.44656 -0.0481,-1.0744 -9.87739,-3.76261 -20.69766,-8.20557 -31.5787,-11.87974 -0.81243,-0.27194 -1.59667,-0.35068 -2.27978,-0.34652 z m -80.57988,10.66772 c -0.56501,0.0622 -0.69469,1.01195 -0.67813,2.54009 0,0.0928 -0.67205,45.48784 -0.17244,47.67643 0.11058,1.46348 0.7837,7.10021 1.40269,8.2984 3.83335,7.42794 11.05349,20.11845 16.77919,29.73497 2.12668,3.57249 1.91909,2.01119 1.91004,-1.22528 -0.0663,-25.95354 0.34488,-47.71569 0.42445,-68.48295 0.41119,-3.81124 -0.46976,-3.89138 -3.49843,-6.63706 -3.42657,-3.11708 -11.33644,-7.94469 -14.61712,-10.99103 -0.71626,-0.66819 -1.21124,-0.95093 -1.55025,-0.91357 z m 117.71626,5.07686 c -0.22621,-0.001 -0.45872,0.0115 -0.69636,0.0365 -31.37857,2.04708 -55.36476,4.72758 -86.70794,9.10917 -5.78316,0.46425 -7.52521,1.01637 -8.03809,5.26091 -0.26084,2.24604 -0.19009,5.52674 -0.17243,10.37258 0.0398,19.31703 0.17244,38.73145 -0.0265,58.54808 -0.0972,4.67342 -1.15342,7.86509 4.64744,6.99852 29.45083,-4.38161 61.19214,-11.38842 90.72697,-16.88862 2.29029,-0.83564 3.12483,-2.62687 3.19999,-4.6607 0.73395,-20.06424 0.62452,-46.64077 0.35482,-66.15675 -0.43717,-1.91888 -1.70442,-2.61042 -3.28787,-2.61967 z m -10.46709,8.49073 c 2.82083,0 5.26477,2.06425 5.65385,5.64557 0.87102,9.40871 2.80815,32.18889 -0.20724,49.51186 -0.42887,2.43619 -2.06481,3.52717 -4.01905,4.35397 -11.98194,5.0625 -43.9791,9.85583 -66.27612,11.69071 -6.59673,0.54383 -11.12479,-0.49135 -11.34586,-7.1013 -0.44214,-13.71514 -0.12434,-31.98827 -0.12434,-49.08575 0,-4.51424 1.14624,-6.39777 6.04514,-7.7065 12.85297,-3.22759 57.04043,-7.22016 70.27362,-7.30856 z m -2.18196,2.10735 c -11.83819,0.26656 -50.20908,4.46257 -67.067,7.04494 -2.80756,0.42888 -4.97738,2.51079 -4.97738,5.818 -0.34046,10.39909 -0.83121,31.19794 0.0796,47.84886 0,5.55768 2.1267,6.82718 8.78089,6.41157 8.01597,-0.50846 55.14805,-5.59419 66.02907,-12.54459 1.22031,-0.78259 1.98023,-1.58286 2.18362,-2.40082 3.17898,-12.87065 1.70721,-36.17144 1.1059,-46.30524 -0.16359,-2.37429 -1.27004,-5.76942 -4.13511,-5.87107 -0.53912,-0.0188 -1.21036,-0.0195 -1.99957,-0.001 z m -20.97896,10.97113 c 2.61824,0.0308 4.56744,4.0108 4.4004,9.09923 -0.17244,5.25703 -2.52849,9.70054 -5.27417,9.93487 -2.73685,0.2476 -4.816,-3.82511 -4.65241,-9.07767 0.17244,-5.25703 2.53402,-9.70938 5.27085,-9.94813 0.0858,-0.007 0.17088,-0.009 0.25533,-0.008 z m -19.52487,1.69285 c 2.61824,0.0267 4.56744,4.00647 4.4004,9.09922 -0.17244,5.25258 -2.52849,9.69612 -5.27417,9.93487 -2.73685,0.24318 -4.816,-3.82838 -4.65241,-9.08099 0.17244,-5.25258 2.53402,-9.70882 5.27085,-9.94315 0.0858,-0.008 0.17088,-0.0113 0.25533,-0.0102 z m 20.77835,0.35979 c -0.0207,-1.1e-4 -0.042,0.001 -0.063,0.003 -0.67205,0.0531 -1.24734,1.14459 -1.29159,2.43563 -0.0443,1.28222 0.47418,2.28201 1.1374,2.2201 0.67205,-0.0575 1.25462,-1.14514 1.28994,-2.42734 0.0429,-1.2507 -0.43197,-2.22816 -1.07274,-2.2317 z m -19.84321,1.71936 c -0.0207,2e-5 -0.042,0.001 -0.063,0.003 -0.67205,0.0531 -1.24734,1.14624 -1.2916,2.43729 -0.0353,1.27778 0.47365,2.28145 1.1457,2.21512 0.67205,-0.0531 1.24734,-1.14514 1.2916,-2.42734 0.0343,-1.2507 -0.44191,-2.22885 -1.08269,-2.22839 z m 33.43898,15.46107 c 0.0553,-0.005 0.1116,-0.002 0.16746,0.005 0.45541,0.0531 0.72897,0.472 0.61845,0.93182 -0.16359,0.65433 -0.54438,1.25622 -1.06611,1.70278 -0.32718,0.28297 -0.70632,0.49963 -1.11751,0.63668 -1.48116,5.39849 -4.66073,10.28028 -8.90523,13.94563 -4.31969,3.71397 -9.72765,6.18996 -15.53733,6.69841 -5.8097,0.49962 -11.07893,-1.04788 -15.17753,-4.04558 -4.02789,-2.94465 -6.92005,-7.29142 -8.05634,-12.4733 -0.40677,-0.0619 -0.77429,-0.21608 -1.07937,-0.446 -0.49519,-0.35371 -0.84006,-0.88871 -0.95502,-1.52539 -0.084,-0.43772 0.21775,-0.9119 0.67315,-1.04455 0.4554,-0.13706 0.89755,0.10719 0.98155,0.55378 0.0443,0.26529 0.18902,0.48082 0.38798,0.62673 0.19012,0.13706 0.44657,0.21721 0.72954,0.19068 0.27854,-0.0265 0.54493,-0.14591 0.75273,-0.31834 0.21223,-0.18128 0.36587,-0.4239 0.42777,-0.69803 0.11938,-0.46424 0.57091,-0.78258 1.02632,-0.72953 0.44656,0.0575 0.72068,0.48137 0.61015,0.93678 -0.16359,0.65436 -0.54438,1.25623 -1.06611,1.70279 -0.22548,0.19896 -0.49905,0.3703 -0.77761,0.50736 1.09651,4.69106 3.75435,8.63608 7.43291,11.32428 3.82008,2.79432 8.72674,4.22686 14.14293,3.76704 5.42064,-0.47309 10.45661,-2.77719 14.47123,-6.23914 3.87311,-3.34257 6.80009,-7.78111 8.21052,-12.68885 -0.27413,-0.0796 -0.52616,-0.2078 -0.75606,-0.37139 -0.48193,-0.35371 -0.82681,-0.89369 -0.95502,-1.53037 -0.0796,-0.43329 0.23101,-0.90581 0.68642,-1.04288 0.45098,-0.13706 0.8876,0.11001 0.97161,0.55211 0.0531,0.26529 0.19067,0.47365 0.38963,0.6284 0.19896,0.13707 0.45485,0.21996 0.73782,0.18901 0.27854,-0.0265 0.54382,-0.14148 0.74279,-0.31834 0.2078,-0.18128 0.3714,-0.4239 0.43772,-0.69803 0.10447,-0.40621 0.46345,-0.70075 0.85056,-0.72953 z m -99.71014,16.74602 c -0.57975,-0.026 -1.41761,0.24704 -2.82361,0.66486 -1.56076,0.47309 -3.28897,0.97327 -2.71419,2.15377 4.70879,9.81549 16.87703,26.53224 23.46932,37.33369 2.2726,3.72724 5.76052,1.70722 9.30648,1.1457 32.32476,-6.38449 62.67768,-12.22461 93.49918,-18.37919 2.96675,-0.59245 5.84563,-1.12799 9.09094,-1.78236 1.2203,-0.2476 1.27225,-0.47309 0.28186,-1.61823 -1.10976,-1.29989 -3.13476,-2.85677 -4.5894,-3.78527 -0.7649,-0.49077 -1.0733,-0.80469 -1.84704,-0.27854 -0.79586,0.54383 -1.35404,1.04456 -2.19853,1.62817 -0.52615,0.36255 -1.10922,0.6809 -1.7459,0.80912 -3.40889,0.67205 -91.28906,17.65796 -95.01628,17.60488 -1.38389,-0.0177 -2.54673,-0.23433 -3.30279,-0.75606 -0.83564,-0.56151 -1.59612,-1.22362 -2.06921,-2.08579 -6.13689,-11.23032 -13.93568,-23.03657 -18.06084,-31.52564 -0.37802,-0.77816 -0.70023,-1.10314 -1.27999,-1.12911 z m -6.13633,6.38339 c -0.30938,-0.0615 -0.55492,0.2592 -0.56872,0.83397 -0.0972,4.09863 0.65487,13.62727 0.69472,13.68035 3.14361,5.46485 17.57891,32.51549 22.3319,40.14238 1.29989,2.09131 1.79066,2.02942 1.93657,-0.95502 0.17243,-3.36026 0.11104,-8.24204 -0.15419,-13.8793 -0.0353,-0.84448 -0.30122,-1.70169 -0.7345,-2.60807 -1.03903,-2.13554 -19.25463,-28.57991 -22.91553,-36.6622 -0.19565,-0.33989 -0.40464,-0.51525 -0.59025,-0.55211 z m 137.66558,16.88861 c -31.14423,5.9158 -66.66529,13.26806 -109.29185,21.52278 -1.49889,0.29181 -1.53444,1.04844 -1.52538,2.36601 0.0265,5.53555 -0.38851,11.07061 -0.30011,16.70789 0.34487,2.64402 0.62674,3.09055 3.02755,2.53346 35.90607,-8.24591 72.34787,-15.19635 108.01518,-24.11428 1.87467,-0.49961 2.12618,-1.05616 2.15708,-2.8203 -0.10164,-4.09863 0.16355,-8.10443 0.13265,-11.85817 -0.009,-1.16725 0.54824,-4.51867 -2.21512,-4.33739 z m -2.03937,5.42174 c 0.6043,0.0233 0.72954,1.23605 0.17409,1.41429 -1.55191,0.49962 -3.12595,0.67094 -4.49655,1.05118 -1.60054,0.44656 -1.36566,-1.23246 -0.64497,-1.42259 0.86217,-0.22991 4.05445,-0.86769 4.84142,-1.03128 0.0445,-0.0102 0.0857,-0.0131 0.12601,-0.0117 z m -10.16864,1.92496 c 0.66014,0.0849 1.02216,1.78817 0.28019,1.93325 -12.64953,2.48037 -23.22226,4.47059 -34.05909,6.8095 -1.31754,0.23434 -1.46348,-1.76469 -0.29181,-1.98134 16.99138,-3.35583 25.23348,-5.16308 33.93475,-6.75478 0.0464,-0.0102 0.0919,-0.0123 0.13596,-0.007 z m 8.17073,2.99107 c 1.20107,0.003 1.92501,0.86162 2.01781,1.81719 0.10164,0.93292 -0.48193,1.9631 -1.69782,2.18859 -1.42811,0.26528 -2.11894,-0.55323 -2.38423,-1.51709 -0.3095,-1.10977 0.54051,-2.24552 1.52206,-2.43564 0.19068,-0.0364 0.3706,-0.0537 0.54218,-0.0531 z m -54.11453,6.57737 c 0.56538,0.0315 1.05726,0.24871 1.23191,0.89865 0.1548,0.54826 0.34431,3.49291 0.18072,4.1119 -0.15475,1.27336 -1.05671,1.76413 -2.32123,2.08247 -13.92292,3.47963 -28.86732,5.97773 -43.02899,8.56866 -2.23722,0.41119 -3.33039,0.35372 -3.31273,-0.8887 0.0223,-1.16282 -0.0784,-1.89184 0.0102,-3.61614 0.0928,-1.71108 1.10149,-2.33947 2.41906,-2.63129 15.15645,-3.26298 29.37968,-5.82357 43.14339,-8.30834 0.47309,-0.0951 1.11254,-0.24871 1.67793,-0.21721 z m -1.1142,2.0659 c -0.055,0.007 -0.12766,0.0205 -0.22714,0.0349 -3.95716,0.57037 -37.24145,7.60978 -43.30755,8.53384 -0.70742,0.11059 -0.56152,3.31158 0,3.35583 8.96654,-1.42806 42.71453,-8.33376 43.46174,-8.81569 0.1636,-0.11059 0.278,-0.30121 0.35316,-0.54881 0.19903,-0.64552 0.12878,-1.63646 -0.0349,-2.23336 -0.0763,-0.30179 -0.0803,-0.34695 -0.24539,-0.32662 z m 67.82638,6.2209 c -0.28933,0.003 -0.58639,0.0458 -0.90694,0.11441 -33.04983,7.24222 -70.64839,15.67937 -101.63345,23.04981 -3.07287,0.48193 -3.13919,1.60883 -2.57325,2.70092 2.55556,4.91659 6.57793,10.32397 9.60659,15.30687 7.01673,10.8987 5.02825,10.10785 11.29776,8.42772 32.42642,-8.90909 64.67619,-18.07909 98.39367,-28.27922 2.86062,-0.86217 3.18781,-0.35428 1.49886,-3.1088 -2.94465,-4.79277 -10.89984,-14.80668 -12.86294,-16.73441 -1.15398,-1.13077 -1.95232,-1.48621 -2.8203,-1.4773 z m -2.45387,3.19666 c 1.84814,-0.0309 1.85643,0.2791 2.9662,1.54362 2.36984,2.68378 7.20743,8.28901 8.75934,11.17176 1.05668,1.96306 0.53884,2.79929 -1.17223,3.28122 -32.07711,8.94444 -60.02048,16.32437 -89.77196,25.00795 -3.94389,1.14514 -4.51866,1.14514 -6.35354,-1.51212 -2.00731,-2.87829 -8.00659,-11.74432 -9.71767,-14.6536 -0.49078,-1.02576 -0.37195,-2.90817 1.69284,-3.39894 17.1063,-4.0986 83.56491,-19.24245 93.59702,-21.43989 z m -0.0249,1.45574 c -0.19675,-0.009 -0.42445,0.0182 -0.65657,0.0514 -0.87102,0.11937 -1.92662,0.29181 -2.61636,0.63668 -0.1724,0.0796 -0.21777,0.26198 -0.15586,0.50073 0.15474,0.50846 0.40234,0.66211 0.80911,1.1175 0.22549,0.25198 0.55378,0.19118 0.76601,0.15586 0.99039,-0.19453 1.68898,-0.43828 2.87833,-0.74777 0.17691,-0.0443 0.22128,-0.19897 0.21223,-0.34487 -0.0265,-0.40235 -0.54052,-0.96441 -0.76601,-1.19875 -0.10832,-0.11498 -0.27412,-0.16138 -0.47088,-0.17078 z m -6.31707,1.47067 c -0.23266,-0.009 -0.50072,0.0255 -0.77263,0.0631 -1.03903,0.13706 -2.29415,0.33491 -3.11211,0.74611 -0.19892,0.10606 -0.26083,0.30563 -0.17243,0.5886 0.18127,0.60131 0.4648,0.79144 0.94673,1.32642 0.28297,0.30066 0.66266,0.2294 0.91026,0.18073 1.17164,-0.21665 2.00676,-0.51619 3.41718,-0.87876 0.20787,-0.0443 0.26138,-0.23433 0.24372,-0.41118 -0.0265,-0.46867 -0.62728,-1.1374 -0.89699,-1.41596 -0.13264,-0.13706 -0.33105,-0.18957 -0.56373,-0.19896 z m -6.57736,1.57181 c -0.26529,-0.0138 -0.57091,0.0226 -0.88041,0.0646 -1.18936,0.1636 -2.61747,0.38908 -3.54154,0.86217 -0.22986,0.11058 -0.29951,0.35316 -0.20228,0.6715 0.21223,0.6809 0.53001,0.90308 1.08269,1.5088 0.3095,0.34487 0.75661,0.25648 1.02631,0.21223 1.34852,-0.25644 2.28974,-0.59302 3.90797,-1.01305 0.22987,-0.0531 0.29123,-0.26915 0.27357,-0.45928 -0.0353,-0.5394 -0.71516,-1.30044 -1.02467,-1.60994 -0.15032,-0.15917 -0.37637,-0.22328 -0.64164,-0.2371 z m 15.85731,0.54715 c -0.22272,-0.008 -0.4775,0.0259 -0.73616,0.0613 -0.99039,0.14591 -2.18471,0.34542 -2.96288,0.74777 -0.19449,0.0972 -0.24647,0.29513 -0.16249,0.56041 0.16359,0.57479 0.44159,0.75716 0.89699,1.25678 0.26528,0.29181 0.62784,0.20675 0.86217,0.16249 1.12745,-0.21222 1.91944,-0.50735 3.26797,-0.86549 0.19902,-0.0531 0.24283,-0.23433 0.23378,-0.39792 -0.0265,-0.44656 -0.60186,-1.07551 -0.85388,-1.33637 -0.13264,-0.13263 -0.32277,-0.18127 -0.5455,-0.18901 z m -23.58204,1.30154 c -0.26528,-0.0117 -0.56926,0.026 -0.87876,0.068 -1.18051,0.15475 -2.60972,0.38963 -3.53821,0.85388 -0.23428,0.11935 -0.3006,0.35316 -0.19896,0.6715 0.19896,0.68532 0.52724,0.90195 1.08434,1.51211 0.3095,0.34486 0.74169,0.262 1.02466,0.20891 1.3441,-0.2476 2.29028,-0.59302 3.89967,-0.99979 0.23429,-0.0663 0.30118,-0.27357 0.28352,-0.47253 -0.0397,-0.53499 -0.72013,-1.2916 -1.02963,-1.60994 -0.15475,-0.15916 -0.38134,-0.22052 -0.64663,-0.23212 z m 17.08592,0.38964 c -0.23268,-0.009 -0.49851,0.0243 -0.76601,0.0597 -1.04787,0.15475 -2.29086,0.36698 -3.10879,0.78259 -0.20335,0.11047 -0.26527,0.3178 -0.1857,0.59191 0.18569,0.61016 0.47309,0.79198 0.95502,1.31813 0.27413,0.30065 0.65437,0.22552 0.90197,0.17243 1.18051,-0.22549 2.00786,-0.52724 3.42713,-0.91191 0.19891,-0.0531 0.25697,-0.24207 0.24372,-0.4145 -0.0353,-0.46425 -0.63335,-1.12856 -0.89864,-1.40269 -0.13707,-0.13485 -0.33603,-0.18625 -0.5687,-0.19565 z m -24.58516,1.2402 c -0.29402,-0.0121 -0.63116,0.0304 -0.9716,0.0746 -1.3087,0.18127 -2.89214,0.42943 -3.9179,0.94673 -0.25196,0.12822 -0.32613,0.38908 -0.21555,0.7428 0.2255,0.75606 0.57865,1.00312 1.1888,1.6663 0.35371,0.38024 0.8362,0.28687 1.1457,0.23379 1.48116,-0.28297 2.52903,-0.65381 4.31085,-1.10922 0.252,-0.0707 0.32605,-0.3001 0.30839,-0.5256 -0.0398,-0.59247 -0.7997,-1.42921 -1.13573,-1.77408 -0.16802,-0.17685 -0.41893,-0.24318 -0.71296,-0.25534 z m 33.11734,0.36642 c -0.80912,0.0619 -6.26566,1.5613 -6.90234,1.90175 -0.15054,0.0796 -0.20726,0.27799 -0.14093,0.55212 0.11495,0.59246 0.33546,0.79089 0.69801,1.33471 0.2078,0.3095 0.50957,0.25642 0.6997,0.23876 0.91964,-0.12822 5.83627,-1.58286 6.93715,-1.83046 0.15471,-0.0353 0.20803,-0.2078 0.19898,-0.37139 -0.009,-0.4554 -0.46425,-1.1363 -0.66322,-1.41927 -0.19896,-0.27855 -0.41174,-0.44154 -0.82735,-0.40622 z m -15.38313,0.18404 c -0.26528,-0.009 -0.56926,0.032 -0.87876,0.0763 -1.18048,0.17686 -2.60918,0.41178 -3.54651,0.89367 -0.22544,0.11938 -0.29177,0.35317 -0.19896,0.67151 0.2078,0.68089 0.53554,0.90196 1.09264,1.49885 0.30507,0.34488 0.74335,0.25702 1.02631,0.20394 1.34411,-0.26529 2.29032,-0.61072 3.89967,-1.03959 0.2343,-0.0619 0.29093,-0.28186 0.28187,-0.48082 -0.0397,-0.52615 -0.72898,-1.28331 -1.02963,-1.60165 -0.15475,-0.15474 -0.38134,-0.21334 -0.64663,-0.22218 z m -25.79883,1.40601 c -0.30895,-0.0132 -0.66432,0.0326 -1.02466,0.0813 -1.37063,0.18128 -3.02426,0.446 -4.09862,0.98983 -0.27418,0.13706 -0.34438,0.41118 -0.23379,0.78258 0.23433,0.79143 0.6135,1.04455 1.25015,1.74756 0.36697,0.39793 0.87543,0.29958 1.19377,0.24208 1.56075,-0.2874 2.66223,-0.68035 4.52806,-1.16228 0.26969,-0.0707 0.33569,-0.31834 0.32663,-0.54383 -0.0487,-0.62784 -0.84006,-1.4983 -1.19377,-1.86528 -0.17685,-0.1857 -0.43883,-0.25866 -0.74777,-0.27191 z m 18.08073,0.51398 c -0.26639,-0.0102 -0.57091,0.032 -0.88041,0.0763 -1.18935,0.17243 -2.60864,0.41893 -3.54153,0.89202 -0.22987,0.11495 -0.30117,0.35482 -0.20394,0.67316 0.21223,0.68975 0.54052,0.89757 1.08435,1.49884 0.31834,0.34488 0.75605,0.25648 1.03461,0.19898 1.33967,-0.26087 2.29469,-0.60574 3.89966,-1.03462 0.23882,-0.0619 0.29123,-0.28352 0.27358,-0.48248 -0.0265,-0.52616 -0.71571,-1.2822 -1.01637,-1.5917 -0.15475,-0.15917 -0.38356,-0.22052 -0.64995,-0.23047 z m 13.69195,0.66818 c -0.80912,0.0619 -3.04524,0.64609 -3.69076,0.97327 -0.15496,0.0884 -0.20782,0.28241 -0.14591,0.55212 0.12822,0.59247 0.3493,0.79142 0.70301,1.33968 0.2078,0.30507 0.50792,0.26027 0.69803,0.23378 0.91965,-0.12821 2.63459,-0.64552 3.73552,-0.90197 0.1548,-0.0265 0.19973,-0.2078 0.19068,-0.37139 -0.009,-0.45541 -0.46425,-1.1363 -0.66321,-1.41927 -0.19897,-0.27854 -0.39849,-0.44153 -0.82736,-0.40622 z m -40.25181,0.66321 c -0.30783,-0.0138 -0.66043,0.031 -1.01636,0.0796 -1.37948,0.18569 -3.03418,0.45541 -4.10858,0.99481 -0.27406,0.13265 -0.34482,0.40622 -0.23876,0.77761 0.23875,0.79143 0.6201,1.04898 1.25678,1.74756 0.36255,0.40235 0.8749,0.30896 1.20208,0.24705 1.55188,-0.29181 2.65339,-0.68532 4.51479,-1.16725 0.27407,-0.0707 0.33568,-0.31391 0.32663,-0.54383 -0.0443,-0.61899 -0.83509,-1.49941 -1.1888,-1.86196 -0.17686,-0.18792 -0.43994,-0.25977 -0.74778,-0.27358 z m 52.87102,0.0796 c -0.79143,0.0663 -2.92696,0.61955 -3.5548,0.94673 -0.15497,0.084 -0.19899,0.27356 -0.1459,0.53885 0.12823,0.57036 0.33602,0.76933 0.68973,1.2999 0.19896,0.29623 0.49021,0.25197 0.6715,0.22549 0.90195,-0.11938 2.52958,-0.61899 3.59957,-0.86217 0.15469,-0.0397 0.20304,-0.20393 0.19399,-0.37638 -0.009,-0.43329 -0.44602,-1.0954 -0.64498,-1.36952 -0.19454,-0.28297 -0.39351,-0.43822 -0.80911,-0.4029 z m -33.81038,0.29015 c -0.29403,-0.0102 -0.63172,0.0354 -0.97659,0.0862 -1.30873,0.19012 -2.88385,0.4554 -3.90961,0.98155 -0.25641,0.12822 -0.32604,0.39793 -0.22881,0.7428 0.23876,0.75605 0.59191,0.9948 1.20206,1.65802 0.34487,0.38024 0.82625,0.27857 1.13575,0.22549 1.48116,-0.29181 2.53401,-0.67205 4.31583,-1.15398 0.25641,-0.0663 0.31911,-0.30066 0.31006,-0.51731 -0.0443,-0.59247 -0.80139,-1.42037 -1.13741,-1.77408 -0.16802,-0.17244 -0.41727,-0.23821 -0.71128,-0.2487 z m 14.36509,0.577 c -0.87101,0.0707 -3.26353,0.68032 -3.94443,1.04289 -0.1638,0.084 -0.22052,0.3001 -0.15419,0.59191 0.12823,0.62784 0.36199,0.8445 0.75108,1.41927 0.22106,0.32718 0.53997,0.2785 0.74777,0.25202 0.97271,-0.13707 2.79819,-0.68975 3.97428,-0.95503 0.1724,-0.0353 0.21719,-0.22492 0.21719,-0.4062 -0.0177,-0.48193 -0.49906,-1.21146 -0.71129,-1.51212 -0.21664,-0.29623 -0.43385,-0.46806 -0.88041,-0.43274 z m 13.13652,0.77263 c -0.81796,0.0619 -3.0386,0.63282 -3.68413,0.97327 -0.15496,0.0796 -0.20782,0.27798 -0.14591,0.55211 0.12824,0.59247 0.34597,0.80083 0.71295,1.34466 0.2078,0.3095 0.50791,0.26523 0.69803,0.23875 0.92849,-0.12819 2.60919,-0.64551 3.71895,-0.90196 0.15472,-0.0265 0.19896,-0.20781 0.19896,-0.3714 -0.0177,-0.46422 -0.46425,-1.14459 -0.66321,-1.42756 -0.20781,-0.29181 -0.42004,-0.44771 -0.83564,-0.40787 z m -55.23205,0.30176 c -0.30728,-0.0127 -0.65988,0.0332 -1.01802,0.0796 -1.37505,0.19012 -3.02811,0.45485 -4.10692,0.98984 -0.26525,0.13707 -0.34934,0.42006 -0.23876,0.78258 0.2476,0.80027 0.61956,1.04403 1.26508,1.75584 0.36255,0.39792 0.87045,0.29516 1.18879,0.24208 1.55633,-0.29181 2.65782,-0.68034 4.52807,-1.16227 0.26525,-0.0707 0.33599,-0.3178 0.31834,-0.55213 -0.0353,-0.619 -0.83676,-1.50438 -1.19047,-1.86693 -0.17685,-0.1857 -0.43881,-0.25589 -0.74611,-0.26861 z m 19.66083,0.38135 c -0.30672,-0.0102 -0.65823,0.0376 -1.01636,0.0863 -1.37506,0.20339 -3.0281,0.48303 -4.10693,1.03128 -0.26522,0.13265 -0.34984,0.4151 -0.23046,0.77762 0.23875,0.80027 0.60961,1.04732 1.25513,1.7459 0.36255,0.3935 0.87212,0.29238 1.19046,0.23047 1.5563,-0.30065 2.65173,-0.7124 4.5264,-1.21202 0.26525,-0.0619 0.33599,-0.31834 0.31834,-0.54383 -0.0353,-0.61899 -0.83509,-1.49001 -1.1888,-1.85699 -0.17906,-0.18128 -0.44104,-0.24871 -0.74778,-0.25865 z m 15.78935,0.37802 c -0.86216,0.0619 -2.78935,0.56595 -3.47024,0.9285 -0.17264,0.0884 -0.22164,0.30123 -0.16414,0.58859 0.13706,0.62784 0.37083,0.84837 0.75108,1.42757 0.2299,0.32717 0.5488,0.27518 0.74777,0.2487 0.9727,-0.12822 2.34389,-0.58473 3.51998,-0.8456 0.16354,-0.0398 0.21631,-0.2288 0.20726,-0.40123 -0.009,-0.48195 -0.49133,-1.20759 -0.70798,-1.51709 -0.21223,-0.30065 -0.43716,-0.47369 -0.88373,-0.42944 z m 13.19785,0.5969 c -0.0849,-0.0113 -0.1785,-0.009 -0.28682,0.005 -0.84891,0.0972 -3.14031,0.78258 -3.80352,1.15398 -0.1638,0.0884 -0.21611,0.30009 -0.15419,0.57865 0.12822,0.61015 0.35317,0.80967 0.73782,1.35792 0.20782,0.31831 0.52614,0.25198 0.71627,0.22549 0.95502,-0.17243 2.70148,-0.77429 3.84661,-1.07937 0.16356,-0.0487 0.21797,-0.22882 0.20891,-0.40125 -0.0177,-0.47309 -0.48193,-1.16282 -0.68974,-1.44579 -0.15585,-0.21889 -0.32062,-0.36167 -0.57534,-0.3946 z m -37.46467,0.94839 c -0.30726,-0.0117 -0.66155,0.0359 -1.01967,0.0912 -1.37505,0.19896 -3.02867,0.48248 -4.11191,1.02631 -0.2608,0.13706 -0.34487,0.42004 -0.22549,0.78259 0.23433,0.80029 0.62011,1.04791 1.25679,1.7376 0.36257,0.39793 0.87046,0.30012 1.1888,0.23379 1.55633,-0.29623 2.65339,-0.70743 4.52806,-1.20704 0.26084,-0.0707 0.336,-0.31834 0.31834,-0.54383 -0.0353,-0.619 -0.83565,-1.49443 -1.19378,-1.85698 -0.17243,-0.18128 -0.43384,-0.25202 -0.74114,-0.26363 z m -19.82496,0.0912 c -0.30784,-0.0138 -0.66156,0.0282 -1.01969,0.0746 -1.37506,0.19012 -3.02865,0.45152 -4.11189,0.99978 -0.26081,0.12822 -0.34486,0.40732 -0.22549,0.7743 0.23434,0.79585 0.6096,1.04345 1.25512,1.75087 0.36252,0.40234 0.87211,0.30013 1.19046,0.24705 1.56517,-0.29182 2.65173,-0.68034 4.5264,-1.16227 0.27409,-0.0752 0.336,-0.31834 0.31834,-0.5571 -0.0353,-0.61899 -0.83509,-1.49056 -1.18881,-1.86196 -0.17463,-0.18128 -0.43661,-0.25147 -0.74444,-0.26529 z m 37.8228,0.0663 c -0.86659,0.0708 -2.79432,0.56981 -3.47522,0.92352 -0.17264,0.0928 -0.21723,0.30175 -0.16414,0.59357 0.13706,0.63668 0.37582,0.84394 0.75606,1.42756 0.22549,0.32718 0.54383,0.27851 0.74279,0.25202 0.98597,-0.13706 2.34832,-0.57866 3.51998,-0.84394 0.16356,-0.0353 0.21631,-0.22659 0.20726,-0.40787 -0.009,-0.48193 -0.49134,-1.21146 -0.70798,-1.51212 -0.20781,-0.30065 -0.43661,-0.47258 -0.87875,-0.43274 z m 12.68056,0.82735 c -0.97272,0.0707 -35.68176,9.65965 -36.44666,10.07084 -0.19033,0.0884 -0.25145,0.32773 -0.18071,0.65491 0.14591,0.70742 0.41119,0.95115 0.84891,1.59667 0.24318,0.37578 0.59743,0.31719 0.82734,0.28187 1.09651,-0.14591 35.1755,-9.67731 36.49307,-9.97798 0.19009,-0.0353 0.24781,-0.25754 0.23876,-0.44766 -0.0221,-0.54384 -0.55654,-1.35295 -0.79088,-1.69782 -0.2476,-0.33602 -0.49022,-0.5295 -0.98983,-0.48083 z m -58.84984,0.55213 c -1.12745,0.11938 -2.77112,0.57532 -3.66424,1.0661 -0.21687,0.12379 -0.29289,0.39792 -0.20891,0.76933 0.17244,0.82679 0.48194,1.09152 0.98155,1.83874 0.29181,0.4156 0.70797,0.34546 0.97326,0.29679 1.27336,-0.21664 2.18031,-0.56208 3.71895,-0.96 0.22547,-0.0575 0.2876,-0.30011 0.27854,-0.53885 -0.0177,-0.62784 -0.64663,-1.55303 -0.92517,-1.94652 -0.28297,-0.38025 -0.56597,-0.58751 -1.15398,-0.52559 z m 38.91378,0.18072 c -0.96388,0.084 -3.12648,0.64553 -3.89138,1.04787 -0.19034,0.0972 -0.24264,0.33601 -0.18073,0.6632 0.15475,0.70743 0.40622,0.94728 0.84394,1.58839 0.2476,0.37579 0.61016,0.31831 0.83564,0.29182 1.09209,-0.15475 2.62575,-0.65436 3.94775,-0.95502 0.18125,-0.0353 0.23544,-0.25203 0.23544,-0.45099 -0.0177,-0.53941 -0.55378,-1.35846 -0.79254,-1.69449 -0.24318,-0.33602 -0.48967,-0.52609 -0.99812,-0.49078 z m -19.41047,0.38631 c -0.30784,-0.0102 -0.66044,0.037 -1.01637,0.0878 -1.37948,0.19896 -3.02533,0.48082 -4.10858,1.02465 -0.26523,0.13706 -0.34436,0.42004 -0.23378,0.78259 0.23434,0.80027 0.61512,1.04898 1.2518,1.74756 0.36698,0.38909 0.8749,0.29181 1.20208,0.22548 1.55188,-0.29623 2.6523,-0.70797 4.5181,-1.19874 0.26968,-0.0708 0.34594,-0.31779 0.32829,-0.55212 -0.0487,-0.619 -0.84006,-1.49444 -1.19377,-1.85699 -0.17686,-0.18127 -0.43994,-0.24981 -0.74777,-0.26031 z m -26.34763,1.35296 c -0.33493,-0.006 -0.72014,0.0537 -1.10922,0.11771 -1.50328,0.23434 -3.30223,0.57037 -4.49158,1.18052 -0.30063,0.15475 -0.38958,0.46479 -0.28353,0.85387 0.23875,0.86218 0.63613,1.11806 1.30818,1.86528 0.38466,0.42445 0.93792,0.30618 1.2916,0.23544 1.70224,-0.35371 2.90872,-0.80912 4.95583,-1.37947 0.30065,-0.084 0.38046,-0.35869 0.3714,-0.60187 -0.0265,-0.67205 -0.86107,-1.60882 -1.23689,-1.99791 -0.1857,-0.19675 -0.47087,-0.26805 -0.80579,-0.27357 z m 97.21648,0.0945 c -0.10029,0.009 -0.21223,0.0337 -0.33824,0.068 -29.93276,8.19723 -64.64528,18.83516 -105.3441,30.18927 -0.50826,0.14149 -0.50825,0.39791 -0.51731,0.79585 -0.009,0.9108 -0.0713,1.83875 -0.0713,2.62133 -0.009,0.86196 0.24263,1.00034 0.72456,0.87212 38.17863,-9.94368 72.86903,-21.19729 105.83487,-30.8359 0.41998,-0.10606 0.48191,-0.39792 0.46425,-0.57035 -0.0972,-0.65437 0.0928,-1.70169 -0.14591,-2.60807 -0.11606,-0.43772 -0.30612,-0.55772 -0.60684,-0.53223 z m -58.65751,0.10278 c -0.9727,0.0752 -3.12925,0.63668 -3.88973,1.04786 -0.19034,0.0972 -0.25754,0.33604 -0.18238,0.66322 0.14591,0.69858 0.40787,0.93401 0.84559,1.58838 0.24317,0.37578 0.6002,0.31719 0.82569,0.28187 1.10092,-0.14591 2.62687,-0.65327 3.94445,-0.94508 0.19008,-0.0443 0.2478,-0.25201 0.23874,-0.45097 -0.009,-0.54825 -0.55654,-1.35848 -0.79087,-1.6945 -0.23876,-0.34487 -0.49187,-0.53504 -0.99149,-0.49078 z m -20.85627,0.92186 c -0.30784,-0.0102 -0.66045,0.0376 -1.01637,0.0862 -1.37947,0.20339 -3.02368,0.48303 -4.10692,1.03129 -0.26524,0.13263 -0.34481,0.41505 -0.23876,0.77761 0.2476,0.80027 0.61845,1.04731 1.25513,1.7459 0.36256,0.39349 0.87655,0.29238 1.20373,0.23047 1.55188,-0.30065 2.65172,-0.71131 4.51313,-1.20208 0.27411,-0.0707 0.34595,-0.32827 0.32829,-0.55377 -0.0443,-0.619 -0.83675,-1.49001 -1.19046,-1.85699 -0.17686,-0.18127 -0.43993,-0.2487 -0.74777,-0.25864 z m -27.2496,0.8373 c -0.35923,0.003 -0.77208,0.079 -1.19211,0.16083 -1.59612,0.30065 -3.52442,0.71627 -4.78009,1.41927 -0.30944,0.17244 -0.39738,0.49077 -0.27357,0.91522 0.28297,0.91965 0.72124,1.18494 1.46404,1.96311 0.42886,0.43771 1.02133,0.29179 1.39274,0.21222 1.81719,-0.43772 3.09828,-0.96441 5.26919,-1.64973 0.30949,-0.0972 0.39403,-0.38965 0.37637,-0.65493 -0.0487,-0.72511 -0.97326,-1.68896 -1.38444,-2.09573 -0.20782,-0.20562 -0.51289,-0.27357 -0.87213,-0.27026 z m 40.84207,0.14259 c -0.96386,0.0796 -3.12648,0.64498 -3.89138,1.0429 -0.19032,0.10164 -0.25147,0.33601 -0.18073,0.6632 0.15474,0.71184 0.40625,0.94728 0.84393,1.60165 0.2476,0.36254 0.61016,0.30836 0.83565,0.28187 1.09208,-0.15475 2.62744,-0.65437 3.9494,-0.95502 0.18125,-0.0353 0.24285,-0.25533 0.23379,-0.4543 -0.0177,-0.53498 -0.55322,-1.35351 -0.80082,-1.68953 -0.23433,-0.34487 -0.48138,-0.52608 -0.98984,-0.49077 z m -21.54766,0.54052 c -0.11343,-0.0155 -0.24042,-0.0144 -0.38632,0.003 -1.1363,0.12822 -2.77221,0.59246 -3.66092,1.10092 -0.23012,0.11938 -0.30174,0.39794 -0.22217,0.78259 0.18127,0.80913 0.48304,1.07883 0.9915,1.8172 0.28297,0.41561 0.70244,0.33606 0.9633,0.29181 1.2822,-0.22992 2.19301,-0.58418 3.72724,-0.99979 0.22104,-0.0575 0.28263,-0.30009 0.27357,-0.53885 -0.0177,-0.62784 -0.64442,-1.54307 -0.91854,-1.93657 -0.21222,-0.28518 -0.42736,-0.4742 -0.76766,-0.52062 z m 14.17775,1.32973 c -0.9727,0.084 -3.61338,0.75551 -4.37386,1.16228 -0.19033,0.10164 -0.25589,0.32772 -0.18073,0.65491 0.15474,0.71184 0.40624,0.94563 0.84393,1.6 0.24317,0.36692 0.61016,0.31883 0.83565,0.28351 1.09208,-0.15475 3.0994,-0.7649 4.41697,-1.06113 0.19008,-0.0487 0.24781,-0.25698 0.23876,-0.45596 -0.0177,-0.5394 -0.55655,-1.3568 -0.79088,-1.69283 -0.2476,-0.33602 -0.49025,-0.5261 -0.98984,-0.49078 z m -21.40507,0.65824 c -0.33547,-0.005 -0.7229,0.0558 -1.11419,0.12435 -1.49885,0.25645 -3.3061,0.60075 -4.49988,1.22859 -0.28736,0.15475 -0.38084,0.4648 -0.27025,0.85388 0.22549,0.85332 0.63612,1.11806 1.30817,1.85201 0.38025,0.42003 0.93844,0.30175 1.28331,0.22218 1.70666,-0.36698 2.91703,-0.83674 4.95087,-1.42921 0.30066,-0.084 0.38542,-0.35262 0.37637,-0.60022 -0.0221,-0.67205 -0.86604,-1.60109 -1.2286,-1.98133 -0.18569,-0.19454 -0.47033,-0.26528 -0.8058,-0.27025 z m -29.70347,0.29014 c -0.0956,-0.0121 -0.12492,0.24982 -0.18901,0.88208 -0.14592,1.44137 -0.11115,3.93503 0.0746,5.05364 0.0796,0.51731 0.24317,0.72567 0.5173,1.17223 2.17091,3.4531 11.91678,17.20696 14.42811,20.72197 0.50846,0.71181 0.62287,0.42997 0.69803,-0.24208 0.0796,-0.79142 0.15528,-1.54749 0.13763,-2.34776 -0.009,-0.45982 -0.0487,-1.07882 -0.26529,-1.52538 -4.43466,-7.31738 -12.53464,-19.69786 -14.81609,-22.952 -0.32718,-0.46425 -0.48967,-0.75053 -0.58528,-0.7627 z m 43.34402,1.0628 c -0.99924,0.0707 -3.71839,0.77928 -4.50982,1.19047 -0.19918,0.11058 -0.26142,0.34486 -0.19067,0.68973 0.15475,0.72953 0.42997,0.97271 0.87212,1.64476 0.25644,0.38462 0.62673,0.32712 0.86549,0.29181 1.1363,-0.15474 3.19777,-0.79143 4.57282,-1.10093 0.19008,-0.0443 0.24284,-0.25312 0.23378,-0.46092 -0.009,-0.56594 -0.56981,-1.40049 -0.81741,-1.7542 -0.24318,-0.34487 -0.50017,-0.54939 -1.02631,-0.50072 z m -22.83926,0.70963 c -0.33713,0.003 -0.7218,0.0713 -1.11088,0.14425 -1.50323,0.29181 -3.31161,0.67206 -4.48328,1.32642 -0.30059,0.16359 -0.38024,0.47254 -0.26529,0.87046 0.26528,0.85776 0.68477,1.10204 1.3745,1.84041 0.39794,0.40677 0.95447,0.26858 1.30818,0.18901 1.69782,-0.41119 2.90153,-0.90197 4.94422,-1.53865 0.2918,-0.0884 0.37523,-0.36145 0.35316,-0.61346 -0.0443,-0.67206 -0.91522,-1.5928 -1.29988,-1.97305 -0.19455,-0.18789 -0.4836,-0.2487 -0.82073,-0.24539 z m 14.76635,1.32974 c -0.10413,-0.0142 -0.22108,-0.0144 -0.35482,0.003 -1.04345,0.11938 -3.85435,0.95502 -4.67231,1.41926 -0.19917,0.11058 -0.27024,0.36312 -0.19067,0.70798 0.16359,0.75606 0.43772,0.99979 0.90197,1.67626 0.26085,0.38029 0.64553,0.30844 0.8887,0.26859 1.17164,-0.2078 3.31218,-0.95502 4.72702,-1.32641 0.19893,-0.0531 0.2561,-0.28298 0.24705,-0.49078 -0.009,-0.5792 -0.59192,-1.427 -0.84394,-1.78071 -0.19233,-0.25866 -0.39067,-0.43523 -0.703,-0.47751 z m 18.00778,0.30508 c -0.9727,0.0751 -3.60731,0.75606 -4.37221,1.15398 -0.19034,0.10164 -0.25312,0.33603 -0.18238,0.66321 0.15475,0.70298 0.42114,0.94618 0.84559,1.5917 0.2476,0.37138 0.61015,0.3183 0.83564,0.29181 1.10093,-0.15474 3.09832,-0.77375 4.42029,-1.0744 0.19007,-0.0353 0.24449,-0.24428 0.23544,-0.44767 -0.0177,-0.54382 -0.55377,-1.35294 -0.79253,-1.69781 -0.23433,-0.33602 -0.49022,-0.52508 -0.98984,-0.48082 z m -7.75457,1.99791 c -1.00809,0.084 -3.72779,0.78203 -4.5148,1.20207 -0.2036,0.0972 -0.26472,0.34543 -0.19398,0.68145 0.16359,0.72511 0.42887,0.9727 0.87543,1.64475 0.26086,0.38022 0.62784,0.32659 0.86217,0.30011 1.1363,-0.16359 3.20939,-0.79088 4.57117,-1.10922 0.1901,-0.0353 0.24705,-0.25202 0.24705,-0.46425 -0.0177,-0.55268 -0.58251,-1.39771 -0.8257,-1.74258 -0.24759,-0.35813 -0.49962,-0.55659 -1.02134,-0.51233 z m -18.76383,0.0597 c -0.33659,0.003 -0.72459,0.0752 -1.11585,0.15253 -1.49886,0.27854 -6.13636,1.43197 -7.31686,2.0775 -0.29177,0.16359 -0.37195,0.47309 -0.25699,0.87544 0.26529,0.85333 0.67757,1.11031 1.37615,1.83543 0.39793,0.42003 0.95447,0.28294 1.30818,0.19896 1.69782,-0.40677 5.73455,-1.67128 7.77281,-2.30797 0.2918,-0.0884 0.37082,-0.36255 0.35316,-0.61014 -0.0443,-0.6809 -0.9191,-1.58674 -1.30818,-1.97139 -0.19012,-0.1901 -0.47587,-0.25423 -0.81242,-0.25036 z m 10.68429,1.9863 c -0.10436,-0.0146 -0.22162,-0.0138 -0.35648,0.001 -1.0346,0.12821 -3.85102,0.95501 -4.66899,1.41926 -0.20335,0.11495 -0.26583,0.37139 -0.19067,0.71626 0.16359,0.74722 0.43275,0.98929 0.89699,1.66134 0.26529,0.38472 0.64607,0.31949 0.89367,0.27523 1.17166,-0.20781 3.31659,-0.94673 4.72702,-1.31813 0.19893,-0.0531 0.25203,-0.28241 0.25203,-0.49906 -0.0177,-0.57478 -0.59745,-1.42037 -0.85389,-1.77408 -0.19233,-0.26528 -0.38673,-0.43855 -0.69968,-0.48249 z m -8.50898,2.36435 c -0.33879,0.002 -0.72787,0.0713 -1.11916,0.14424 -1.49885,0.29181 -5.17745,1.19267 -6.35354,1.84704 -0.28734,0.15475 -0.38024,0.46423 -0.25202,0.86217 0.25202,0.85332 0.67094,1.11033 1.36952,1.83544 0.3935,0.42002 0.95502,0.2835 1.29989,0.20393 1.70223,-0.41119 4.78396,-1.42814 6.81779,-2.05594 0.2918,-0.0928 0.37248,-0.37252 0.35482,-0.62011 -0.0443,-0.67206 -0.91523,-1.59115 -1.29989,-1.97139 -0.19012,-0.18568 -0.47861,-0.24816 -0.81741,-0.24538 z"
     style="fill:#eff1f5;stroke-width:1.13188" />
</svg>
